<?xml version="1.0" standalone="no"?>
<!DOCTYPE svg PUBLIC "-//W3C//DTD SVG 20010904//EN"
 "http://www.w3.org/TR/2001/REC-SVG-20010904/DTD/svg10.dtd">
<svg version="1.0" xmlns="http://www.w3.org/2000/svg"
 width="868.000000pt" height="1280.000000pt" viewBox="0 0 868.000000 1280.000000"
 preserveAspectRatio="xMidYMid meet">
<metadata>
Created by potrace 1.15, written by Peter Selinger 2001-2017
</metadata>
<g transform="translate(0.000000,1280.000000) scale(0.100000,-0.100000)"
fill="#000000" stroke="none">
<path d="M5195 12787 c-53 -31 -93 -70 -172 -164 -73 -88 -89 -103 -121 -108
-65 -11 -63 -8 -56 -85 4 -38 5 -70 2 -70 -3 0 -24 7 -46 14 -52 19 -58 10
-42 -63 15 -72 11 -115 -13 -119 -10 -2 -39 16 -70 44 -72 65 -108 86 -124 72
-34 -27 -4 -138 63 -236 47 -68 60 -102 50 -127 -7 -20 -23 -12 -117 57 -123
89 -251 139 -265 104 -7 -18 59 -111 181 -256 93 -110 115 -143 115 -170 0
-19 -4 -21 -27 -15 -16 3 -59 26 -98 50 -124 78 -363 175 -428 175 -77 0 -29
-56 188 -221 229 -173 234 -178 241 -216 5 -27 3 -33 -12 -33 -10 0 -104 42
-210 94 -105 52 -236 110 -291 129 -55 19 -123 50 -151 70 -50 34 -151 65
-171 52 -19 -11 12 -67 71 -130 95 -102 261 -200 601 -353 81 -37 92 -57 82
-152 -4 -36 -40 -225 -80 -420 -126 -608 -199 -1016 -274 -1530 -149 -1025
-188 -1603 -162 -2380 32 -936 108 -1365 466 -2610 178 -620 230 -812 354
-1306 104 -412 223 -840 351 -1259 110 -360 134 -424 167 -454 25 -21 33 -23
93 -18 84 8 182 26 200 37 22 13 -4 59 -97 170 -97 117 -115 142 -165 233
-103 187 -173 398 -319 972 -141 549 -244 918 -469 1668 -249 835 -366 1295
-404 1597 -55 421 -71 755 -70 1420 0 715 14 943 90 1485 152 1092 381 2237
496 2483 31 65 97 98 433 217 166 58 340 125 408 156 48 22 31 31 -45 25 -329
-29 -441 -46 -520 -77 -28 -11 -65 -19 -82 -17 l-31 3 35 22 c19 13 170 80
334 150 l300 128 -45 8 c-69 13 -190 2 -235 -21 -54 -27 -237 -72 -293 -72
-43 1 -45 2 -26 16 11 8 88 51 170 96 246 132 344 188 351 200 16 25 -266 -24
-387 -68 -93 -33 -125 -30 -81 8 20 18 172 94 255 129 92 37 175 120 120 119
-10 0 -55 -9 -100 -19 -46 -10 -83 -16 -83 -12 0 4 46 32 103 62 56 31 102 62
102 70 0 10 -19 15 -75 19 l-75 6 60 27 c122 56 123 57 75 82 -36 19 -31 35
21 69 40 27 47 40 28 51 -7 5 -8 26 -3 63 17 124 -7 167 -71 129z"/>
<path d="M5640 11565 c-99 -52 -214 -95 -251 -93 -21 0 -48 -9 -71 -24 -24
-16 -46 -24 -61 -21 -17 3 -54 -11 -113 -42 -62 -32 -96 -45 -114 -41 -16 3
-37 -4 -61 -20 -20 -14 -90 -44 -156 -68 -153 -54 -210 -87 -229 -132 -12 -29
-12 -39 0 -68 25 -60 44 -62 149 -16 51 22 103 40 117 40 31 0 622 288 705
344 72 48 175 144 175 163 0 20 -19 15 -90 -22z"/>
<path d="M3183 11480 c-13 -5 -23 -14 -23 -20 0 -5 38 -28 85 -49 46 -22 99
-51 118 -65 43 -33 109 -56 159 -56 28 0 47 -7 66 -25 28 -26 219 -123 285
-144 21 -7 49 -10 62 -7 20 5 27 1 40 -25 15 -28 19 -30 53 -24 34 5 40 3 61
-26 23 -31 25 -31 86 -27 114 10 142 41 115 130 -10 34 -14 38 -43 38 -37 0
-77 24 -77 46 0 12 -7 14 -29 9 -24 -5 -32 -1 -51 25 -19 27 -26 30 -56 24
-29 -5 -37 -2 -58 24 -18 20 -44 34 -88 47 -35 9 -82 28 -106 42 -52 30 -127
45 -343 72 -179 23 -222 25 -256 11z"/>
<path d="M2061 11270 c-101 -21 -75 -39 109 -75 225 -45 483 -143 529 -201 17
-22 26 -25 53 -20 106 20 108 19 129 -3 23 -25 51 -26 134 -6 77 19 81 19 62
-3 -10 -10 -17 -24 -17 -30 0 -19 38 -23 69 -8 48 25 61 21 61 -20 l0 -37 48
7 c26 3 60 9 76 12 26 6 28 5 21 -17 -14 -44 -11 -54 15 -52 14 1 58 5 98 9
39 4 72 4 72 0 0 -4 -7 -20 -15 -37 -14 -26 -14 -30 -1 -35 9 -3 43 1 78 10
34 9 64 14 66 11 3 -2 -7 -20 -22 -39 -14 -19 -26 -38 -26 -41 0 -4 39 -4 88
0 86 7 87 7 70 -12 -10 -11 -18 -25 -18 -31 0 -24 76 -27 160 -6 23 6 23 4 -9
-26 -33 -31 -34 -33 -16 -46 10 -8 29 -14 41 -14 20 0 103 24 159 45 13 5 4
-9 -22 -36 -26 -27 -43 -54 -43 -68 0 -22 3 -23 46 -18 60 6 109 52 129 121
24 80 16 169 -17 190 -14 8 -24 4 -51 -22 -18 -17 -36 -32 -39 -32 -4 0 -4 16
-1 34 14 85 -24 115 -88 70 -51 -35 -68 -24 -50 36 6 22 9 45 6 50 -10 17 -51
11 -70 -10 -25 -28 -42 -25 -60 11 -28 53 -50 69 -89 62 -33 -5 -36 -3 -52 30
-21 45 -34 50 -78 32 -44 -19 -59 -13 -79 30 -19 39 -29 42 -81 20 -35 -15
-37 -15 -45 7 -4 13 -11 40 -15 61 -10 51 -29 56 -81 18 -24 -17 -51 -31 -60
-31 -10 0 -35 16 -56 35 -46 41 -51 42 -90 14 -31 -22 -36 -22 -116 2 -38 12
-44 11 -63 -6 -20 -18 -21 -18 -53 0 -24 14 -47 19 -92 17 -33 -2 -138 8 -233
22 -193 29 -404 40 -471 26z"/>
<path d="M5930 11210 c-121 -23 -164 -24 -201 -5 -31 17 -53 11 -79 -20 -10
-12 -23 -15 -51 -10 -25 4 -47 1 -69 -10 -21 -11 -41 -14 -59 -9 -37 10 -50 6
-96 -32 -49 -39 -55 -41 -55 -15 0 33 -14 31 -59 -5 -43 -33 -84 -44 -96 -24
-12 20 -48 9 -86 -25 -44 -40 -59 -44 -59 -15 0 27 -22 25 -57 -4 -42 -35 -67
-46 -92 -39 -14 3 -34 -4 -59 -20 -25 -18 -45 -24 -60 -21 -16 5 -38 -4 -75
-30 -49 -34 -56 -36 -80 -25 -22 10 -32 10 -50 0 -54 -29 -71 -103 -40 -168
22 -47 52 -60 103 -44 22 6 56 9 75 5 26 -5 40 -1 62 16 22 17 38 21 87 18 55
-3 61 -1 72 21 19 36 34 42 97 35 60 -6 66 -2 42 30 -24 32 -19 49 11 42 33
-9 121 7 279 50 80 22 141 34 161 31 26 -4 53 7 145 59 63 35 139 71 169 79
114 32 284 109 309 139 12 14 8 16 -40 15 -30 -1 -97 -10 -149 -19z"/>
<path d="M6740 11115 c-122 -19 -261 -52 -322 -75 -65 -24 -78 -25 -117 -2
-21 12 -35 14 -44 7 -84 -61 -96 -66 -116 -55 -24 12 -46 2 -120 -52 -29 -22
-45 -29 -48 -21 -3 7 -13 23 -23 35 -18 22 -19 22 -39 4 -11 -10 -35 -40 -53
-67 -18 -27 -36 -49 -40 -49 -4 0 -5 20 -1 45 7 56 -6 59 -68 12 -24 -19 -59
-41 -76 -51 -31 -16 -33 -15 -45 4 -22 35 -53 24 -112 -42 -31 -34 -56 -65
-56 -70 0 -4 -3 -8 -7 -8 -5 0 -8 24 -8 52 0 50 -1 53 -24 50 -14 -1 -48 -20
-75 -41 -72 -54 -94 -64 -130 -58 -42 6 -58 -4 -96 -63 -35 -54 -45 -60 -55
-31 -3 10 -14 26 -25 36 -19 17 -23 17 -54 3 -31 -15 -49 -42 -75 -111 -14
-36 -24 -34 -44 7 -32 69 -75 66 -92 -6 -16 -63 -45 -64 -83 -3 l-29 47 -17
-23 c-9 -13 -30 -45 -46 -71 -16 -27 -33 -48 -37 -48 -5 0 -18 16 -31 35 -27
43 -43 44 -75 5 -65 -76 -75 -206 -22 -275 30 -41 50 -43 101 -13 36 21 37 21
88 4 29 -10 63 -16 76 -14 31 4 38 33 14 59 -26 28 -11 33 45 14 27 -9 67 -15
88 -13 35 3 38 6 36 30 l-2 28 74 -7 c66 -5 75 -4 81 12 4 11 1 30 -9 47 -19
33 -17 34 58 8 63 -22 120 -26 130 -10 4 6 -1 23 -10 37 l-17 26 86 -5 c109
-7 125 -3 133 33 7 34 16 35 76 9 75 -33 126 -6 91 47 -22 34 -13 38 42 19 48
-16 129 -21 158 -10 18 7 22 39 6 49 -19 12 -10 25 18 25 15 -1 56 -7 92 -15
36 -7 66 -12 68 -10 2 1 -8 31 -22 66 -15 34 -26 64 -26 66 0 2 22 -8 50 -22
102 -52 194 -18 144 53 -19 27 -19 27 61 1 53 -18 70 -20 90 -11 29 13 31 30
10 58 -8 10 -15 22 -15 26 0 4 35 6 77 5 l78 -2 5 35 c4 28 9 34 25 32 44 -6
325 138 392 200 20 19 23 40 5 37 -4 -1 -45 -7 -92 -14z"/>
<path d="M1475 10829 c-79 -12 -162 -38 -176 -56 -26 -31 6 -38 165 -38 106 0
157 -4 168 -12 15 -13 75 -27 160 -38 26 -3 55 -14 65 -23 12 -12 33 -17 72
-17 l56 0 5 -35 c6 -39 9 -40 105 -25 l50 8 -18 -21 c-41 -46 13 -56 88 -17
53 29 64 27 47 -10 -7 -14 -12 -31 -12 -37 0 -20 103 -1 175 31 37 17 70 31
72 31 2 0 -6 -17 -18 -38 -42 -73 1 -93 99 -47 67 31 74 31 60 1 -6 -14 -8
-32 -5 -40 10 -25 80 -20 138 10 28 14 53 23 56 21 2 -3 -5 -24 -17 -47 -40
-79 -2 -91 105 -34 37 19 69 33 72 30 2 -2 -6 -27 -18 -55 -12 -29 -19 -54
-16 -57 3 -3 35 4 72 15 37 12 74 21 81 21 27 0 26 -29 -1 -62 -16 -19 -23
-34 -16 -36 6 -2 54 4 107 13 52 10 97 15 101 12 3 -3 -8 -17 -23 -31 -25 -22
-27 -27 -14 -36 14 -11 98 -7 158 6 25 5 25 4 -13 -29 -33 -29 -38 -38 -27
-49 17 -17 89 -15 186 7 42 10 79 15 82 13 2 -3 -20 -24 -51 -48 -31 -24 -54
-45 -52 -47 3 -2 33 1 68 7 35 5 84 10 109 10 l45 0 -38 -31 c-44 -36 -47 -56
-10 -65 24 -6 143 8 198 23 17 4 15 0 -9 -25 -24 -26 -27 -34 -16 -47 30 -36
128 -5 167 54 28 41 40 83 54 184 18 128 0 154 -66 96 -19 -17 -41 -29 -49
-26 -7 3 -19 28 -26 56 -14 59 -27 72 -68 69 -35 -3 -61 17 -88 67 -22 41 -42
44 -74 10 -13 -14 -27 -25 -31 -25 -4 0 -10 21 -14 48 -8 54 -29 92 -51 92 -9
0 -29 -9 -45 -21 -16 -11 -33 -18 -39 -14 -5 3 -24 30 -42 60 -18 30 -38 55
-44 55 -7 0 -30 -21 -51 -47 -22 -25 -44 -43 -50 -40 -6 4 -25 31 -42 61 -16
30 -35 57 -41 61 -6 4 -26 -5 -45 -20 -20 -14 -40 -23 -46 -19 -6 3 -26 30
-45 60 -37 58 -59 67 -89 34 -28 -30 -53 -24 -106 25 -26 25 -53 45 -59 45 -6
0 -20 -16 -31 -35 -12 -19 -25 -35 -31 -35 -5 0 -35 25 -67 55 -32 30 -60 55
-63 55 -3 0 -16 -26 -28 -57 -13 -32 -27 -62 -32 -68 -5 -5 -23 5 -46 27 -48
46 -78 61 -108 54 -14 -4 -38 1 -59 13 -37 20 -65 18 -113 -8 -33 -17 -65 -13
-101 14 -35 25 -45 24 -102 -17 -13 -9 -23 -7 -48 12 -30 21 -36 22 -90 11
-42 -8 -82 -8 -152 0 -137 15 -285 19 -354 8z"/>
<path d="M6225 10425 c-120 -65 -129 -67 -121 -21 16 82 -17 85 -116 11 -40
-30 -76 -55 -80 -55 -4 0 -8 17 -10 37 -5 63 -54 59 -136 -12 -30 -25 -55 -45
-58 -45 -2 0 -13 18 -24 39 -10 22 -25 41 -32 44 -24 8 -64 -21 -107 -77 -23
-31 -45 -56 -49 -56 -4 0 -16 17 -27 37 -37 70 -83 50 -150 -65 -25 -42 -46
-69 -48 -61 -3 8 -9 32 -13 54 -8 32 -13 39 -29 37 -32 -6 -94 -72 -141 -152
l-44 -75 0 72 c0 79 -6 103 -25 103 -19 0 -84 -55 -122 -105 -20 -25 -39 -45
-42 -45 -4 0 -12 14 -18 30 -6 17 -18 30 -26 30 -24 0 -64 -54 -82 -112 -10
-29 -23 -59 -30 -67 -11 -12 -15 -8 -20 25 -21 130 -75 109 -156 -60 l-43 -89
-12 61 c-7 33 -17 70 -24 81 -34 64 -101 -32 -129 -184 -26 -138 34 -224 155
-225 53 0 67 14 49 50 -8 15 -12 30 -9 32 2 3 24 2 47 -3 23 -5 74 -15 114
-22 90 -18 111 -8 68 31 -17 15 -41 35 -55 45 -13 9 -22 19 -19 21 7 7 142
-24 154 -35 12 -12 52 -11 76 1 29 16 23 45 -18 78 l-38 30 58 -19 c68 -23
211 -37 220 -21 4 5 -19 29 -50 53 -31 23 -52 44 -46 46 13 5 115 -20 160 -38
26 -11 34 -10 48 1 16 13 16 24 0 63 -6 15 -1 17 41 17 27 0 82 -5 123 -10 41
-6 76 -8 79 -5 2 2 -21 32 -51 67 -31 34 -55 63 -53 65 1 1 35 -11 76 -28 83
-35 182 -49 195 -28 6 8 -3 22 -25 41 -41 33 -36 34 55 8 120 -34 174 -23 145
29 -14 27 -13 27 56 -9 43 -23 69 -30 98 -28 50 4 57 24 25 70 -27 38 -31 38
114 -18 111 -43 131 -39 92 19 -14 20 -22 37 -16 37 5 0 50 -16 100 -35 49
-19 99 -35 110 -35 17 0 19 5 14 35 -3 19 -3 35 0 35 3 0 40 -18 82 -40 100
-53 153 -53 125 1 -19 35 -2 35 65 0 80 -41 99 -39 103 12 4 48 19 54 71 28
57 -30 75 -27 104 18 21 32 34 40 69 46 24 4 88 24 143 45 55 20 165 59 245
85 153 50 187 68 160 85 -35 22 -357 -2 -410 -30 -27 -14 -72 -12 -113 5 -43
18 -87 19 -121 4 -20 -9 -32 -8 -60 5 -32 15 -41 15 -101 1 -83 -19 -82 -19
-60 5 44 49 -41 48 -121 -1 -51 -31 -65 -26 -62 24 3 39 1 42 -24 45 -17 2
-54 -12 -101 -37 -40 -23 -79 -41 -85 -41 -7 0 -4 16 8 45 10 24 16 46 12 49
-5 3 -53 -20 -107 -49z"/>
<path d="M1736 10284 c-3 -9 -6 -31 -6 -49 0 -19 -5 -37 -11 -40 -5 -4 -32 14
-59 39 -63 59 -96 68 -124 34 -12 -14 -26 -34 -32 -44 -11 -18 -13 -18 -40 4
-58 45 -70 47 -105 18 -30 -25 -37 -27 -90 -21 -47 6 -69 3 -116 -15 -32 -12
-146 -41 -253 -65 -235 -53 -317 -77 -392 -117 -62 -33 -102 -68 -77 -68 8 0
61 10 119 22 84 17 142 21 290 22 205 1 314 -14 356 -46 26 -21 27 -21 75 -4
40 15 52 16 64 6 14 -11 14 -15 0 -37 -30 -45 5 -57 67 -23 21 11 58 36 84 55
52 40 64 43 64 15 0 -10 -18 -33 -40 -51 -22 -18 -40 -36 -40 -41 0 -17 94 -7
180 21 49 16 90 26 90 22 0 -3 -13 -15 -30 -26 -32 -21 -44 -41 -34 -56 11
-18 84 -8 165 21 l82 31 -41 -45 c-87 -94 -29 -103 134 -22 60 30 111 53 113
51 1 -2 -8 -19 -22 -37 -88 -115 -34 -132 122 -39 106 63 155 52 79 -18 -23
-22 -39 -43 -36 -47 14 -13 81 8 166 51 47 25 88 43 90 40 3 -2 -10 -27 -28
-55 -36 -56 -35 -86 2 -75 13 4 59 25 102 46 83 41 136 50 136 24 0 -8 -16
-36 -36 -61 -76 -100 8 -81 241 54 5 3 -17 -27 -48 -67 -81 -104 -81 -104 58
-66 49 14 96 25 105 25 8 0 -4 -19 -30 -45 -37 -37 -41 -46 -30 -60 17 -20 55
-19 129 4 34 10 61 17 61 14 0 -2 -12 -14 -27 -27 -61 -52 8 -74 112 -35 31
12 59 18 62 15 5 -4 -2 -29 -22 -78 -10 -25 29 -24 146 2 51 12 94 19 96 16 2
-2 -21 -21 -52 -41 -55 -37 -80 -66 -68 -79 12 -12 51 -6 138 24 88 30 155 39
155 20 0 -5 -20 -23 -45 -40 -108 -74 1 -92 173 -28 67 25 108 59 122 104 17
51 3 268 -19 296 -24 29 -52 17 -81 -33 -26 -47 -31 -43 -49 37 -18 77 -46
116 -78 112 -22 -2 -30 -10 -39 -43 -9 -33 -15 -40 -35 -40 -21 0 -26 7 -37
55 -21 85 -44 100 -96 59 -31 -25 -40 -20 -82 46 -15 25 -36 48 -47 51 -24 7
-53 -19 -69 -63 -7 -18 -16 -32 -21 -30 -4 1 -18 32 -30 68 -51 150 -93 165
-143 52 -13 -29 -26 -53 -29 -53 -2 0 -23 38 -45 84 -59 124 -88 126 -143 6
l-30 -65 -22 65 c-48 145 -81 167 -118 80 -12 -28 -26 -49 -32 -47 -5 2 -29
32 -52 68 -51 76 -87 111 -109 102 -9 -3 -30 -36 -46 -72 -33 -75 -26 -76 -95
23 -61 87 -110 84 -120 -8 -3 -25 -8 -46 -11 -46 -3 0 -29 23 -58 50 -56 53
-85 61 -115 34 -24 -22 -41 -14 -76 38 -56 84 -112 72 -133 -29 l-12 -54 -27
43 c-51 81 -129 125 -145 82z"/>
<path d="M8005 9815 c-55 -12 -140 -35 -190 -49 -136 -40 -195 -44 -240 -16
l-37 23 -74 -23 c-60 -19 -76 -21 -88 -10 -17 13 -40 10 -94 -11 -29 -12 -36
-11 -77 11 -42 23 -47 24 -105 12 -34 -7 -69 -16 -78 -19 -13 -5 -12 0 6 19
12 13 22 27 22 31 0 18 -73 3 -139 -28 -40 -19 -75 -35 -78 -35 -2 0 5 12 16
26 55 70 -11 74 -133 9 -47 -25 -88 -45 -91 -45 -2 0 4 23 15 50 20 50 20 50
0 50 -36 0 -115 -36 -184 -83 -62 -43 -106 -59 -106 -39 0 4 11 24 25 44 34
51 33 78 -3 78 -40 0 -111 -48 -167 -114 -68 -78 -80 -75 -71 19 4 41 3 75 -2
75 -21 0 -103 -63 -153 -118 -78 -86 -94 -82 -77 22 5 32 7 61 4 63 -6 7 -51
-20 -145 -87 -46 -33 -88 -60 -93 -60 -4 0 -5 18 -2 40 12 71 -32 66 -135 -15
-32 -25 -60 -45 -64 -45 -4 0 -7 18 -7 40 0 37 -2 40 -27 40 -20 0 -45 -20
-108 -86 l-82 -86 -7 51 c-12 91 -57 80 -141 -34 -31 -41 -60 -75 -64 -75 -5
0 -11 22 -15 49 -13 95 -46 92 -141 -14 -37 -41 -71 -75 -77 -75 -7 0 -8 15
-4 38 4 25 1 45 -8 57 -13 18 -15 18 -50 -4 -20 -13 -36 -26 -36 -30 0 -4 -23
-33 -51 -64 -53 -60 -87 -76 -74 -34 4 12 8 36 9 52 1 25 -3 30 -25 33 -51 6
-103 -61 -143 -185 -31 -93 -66 -93 -80 1 -9 55 -35 82 -65 66 -41 -21 -81
-130 -99 -270 -13 -93 -1 -127 53 -151 63 -28 125 -34 150 -15 20 15 19 17
-22 52 -24 19 -43 40 -43 46 0 18 73 0 159 -37 79 -35 134 -44 146 -24 4 5 -5
28 -19 50 -20 30 -23 39 -11 39 13 0 141 -42 200 -66 18 -7 18 -6 -3 27 -41
61 -54 99 -41 115 14 17 27 14 129 -31 41 -18 86 -34 100 -35 84 -7 90 11 25
64 -25 21 -45 43 -45 51 0 20 25 25 51 9 106 -61 214 -89 249 -65 12 9 6 19
-38 61 -75 69 -57 92 35 45 47 -24 145 -45 212 -45 l34 0 -44 31 c-88 62 -123
109 -84 109 8 0 57 -18 109 -40 51 -22 105 -40 119 -40 60 0 72 23 36 68 -20
26 -20 27 -2 30 10 1 63 -13 118 -32 54 -20 101 -33 103 -31 3 2 -10 23 -27
47 -17 23 -31 48 -31 55 0 20 41 15 81 -10 155 -95 174 -102 198 -73 14 16 6
40 -27 84 -13 17 -21 32 -18 32 4 0 42 -20 84 -45 79 -46 172 -70 186 -47 3 5
-3 36 -14 67 -11 32 -18 60 -16 62 2 2 25 -15 52 -38 55 -46 137 -89 172 -89
37 0 36 26 -3 80 -66 89 -27 106 81 35 38 -25 79 -48 91 -51 56 -15 78 19 49
78 -22 44 -21 44 21 8 44 -39 122 -76 181 -85 56 -9 55 5 -5 75 -27 30 -41 51
-33 48 8 -4 51 -23 95 -42 93 -41 158 -54 180 -36 20 17 19 21 -10 64 -13 20
-23 36 -22 36 1 0 29 -14 61 -30 44 -22 73 -30 112 -30 58 0 66 10 37 42 -24
27 -9 33 50 18 62 -14 93 -11 89 12 -4 23 19 37 83 49 31 6 118 35 193 66 75
30 195 76 267 100 151 52 245 92 245 104 0 17 -146 7 -245 -16z"/>
<path d="M1437 9544 c-3 -11 -9 -47 -12 -82 -4 -34 -11 -64 -16 -67 -5 -3 -28
12 -51 33 -107 98 -228 112 -174 21 9 -16 14 -34 11 -39 -9 -15 -62 -12 -96 6
-17 8 -48 14 -72 12 -37 -3 -42 -6 -42 -28 0 -24 -3 -25 -74 -30 -75 -5 -75
-5 -83 -37 -9 -33 -9 -33 -73 -33 -54 0 -68 -4 -87 -23 -36 -37 -81 -61 -258
-135 -296 -125 -357 -159 -332 -184 14 -14 73 0 199 48 51 19 116 39 145 45
29 6 88 22 131 35 55 17 102 24 157 24 89 0 123 10 163 48 l27 26 0 -42 c0
-25 5 -42 12 -42 6 0 35 13 63 29 81 46 89 45 86 -11 -2 -43 0 -48 19 -48 28
0 53 14 116 61 28 22 54 39 58 39 3 0 0 -13 -9 -30 -42 -82 2 -87 142 -16 40
20 77 36 83 36 5 0 10 -13 10 -28 0 -62 36 -66 138 -17 67 32 92 34 56 5 -57
-48 -26 -77 60 -55 31 8 88 31 128 51 l72 36 -18 -28 c-53 -80 -59 -94 -45
-110 17 -21 73 -14 156 21 82 33 96 32 50 -6 -20 -17 -37 -37 -37 -46 0 -29
98 -11 195 35 48 24 89 41 91 39 1 -1 -6 -22 -17 -46 -10 -24 -19 -50 -19 -57
0 -39 84 -24 203 37 42 21 77 37 77 34 0 -2 -13 -26 -30 -52 -61 -95 -34 -105
102 -38 50 25 100 45 110 45 33 0 16 -32 -36 -71 -101 -77 -68 -94 64 -34 126
57 164 43 95 -34 -19 -21 -35 -41 -35 -45 0 -26 152 21 248 77 35 20 66 37 70
37 3 0 -14 -21 -39 -47 -135 -141 -120 -167 47 -83 55 27 111 52 127 56 40 9
35 -19 -10 -53 -20 -15 -50 -41 -67 -57 -26 -25 -28 -29 -13 -38 19 -10 78 3
196 46 79 29 101 29 52 0 -49 -29 -52 -64 -7 -64 13 0 63 11 110 25 47 14 88
25 91 25 3 0 -18 -22 -46 -49 -28 -27 -49 -55 -47 -63 10 -26 92 -14 172 25
122 61 170 135 149 230 -6 29 -5 62 4 106 10 48 11 73 3 97 -21 64 -54 49
-110 -50 -34 -59 -56 -83 -68 -72 -4 4 -7 51 -7 105 0 76 -4 103 -18 124 -35
53 -75 27 -97 -65 -24 -95 -57 -82 -85 32 -31 128 -67 141 -116 42 -14 -29
-31 -58 -38 -65 -19 -19 -32 11 -26 58 12 89 -82 158 -145 107 -17 -13 -24
-32 -28 -71 -8 -89 -51 -79 -78 18 -16 55 -38 91 -56 91 -18 0 -54 -49 -72
-99 -10 -28 -22 -51 -26 -51 -4 0 -16 29 -25 65 -30 109 -69 153 -95 106 -5
-11 -10 -38 -10 -60 0 -45 -20 -58 -63 -42 -26 10 -35 31 -57 127 -12 52 -40
94 -64 94 -24 0 -53 -38 -76 -99 -12 -33 -26 -61 -30 -61 -5 0 -20 32 -35 70
-35 92 -47 104 -84 86 -36 -19 -52 -40 -60 -78 -9 -43 -37 -60 -57 -34 -8 11
-14 28 -14 38 0 32 -27 86 -53 102 -19 13 -30 14 -56 5 -39 -14 -51 -35 -51
-93 0 -40 -3 -46 -20 -46 -24 0 -52 27 -97 93 -43 62 -77 65 -92 10 -6 -21
-11 -46 -11 -55 0 -34 -32 -17 -111 58 -44 41 -85 74 -92 71 -17 -5 -37 -47
-37 -79 0 -49 -21 -42 -100 37 -64 64 -79 74 -83 59z"/>
<path d="M6097 9109 c-21 -11 -71 -51 -111 -89 -98 -94 -118 -94 -71 0 25 49
31 81 19 93 -21 21 -164 -83 -204 -148 -28 -46 -40 -44 -29 3 11 50 11 109 -1
117 -14 8 -85 -30 -130 -72 -22 -19 -56 -62 -76 -94 -41 -67 -65 -86 -84 -64
-9 11 -10 29 -1 78 17 96 15 127 -7 127 -47 0 -123 -82 -194 -209 -9 -17 -25
-31 -34 -31 -13 0 -15 6 -10 33 4 17 9 53 12 80 6 45 6 47 -19 47 -43 0 -85
-46 -132 -145 -52 -108 -70 -128 -91 -100 -15 20 -16 50 -5 100 17 72 -36 120
-84 75 -20 -19 -36 -50 -92 -182 -28 -66 -46 -50 -78 64 -9 32 -20 60 -25 63
-27 17 -59 -30 -110 -163 -18 -46 -37 -81 -43 -79 -6 2 -17 28 -25 58 -37 146
-97 95 -141 -120 -12 -58 -23 -106 -24 -108 -2 -2 -27 35 -55 81 -47 76 -82
116 -104 116 -22 0 -40 -59 -54 -171 -7 -68 -17 -139 -20 -157 -6 -30 -2 -38
44 -82 36 -34 66 -53 103 -64 127 -38 198 0 104 55 -36 21 -46 39 -22 39 7 0
53 -14 103 -31 120 -42 160 -49 181 -34 18 14 14 20 -90 113 -68 61 -10 73 74
16 72 -49 110 -64 161 -64 85 0 86 27 2 90 -95 72 -56 79 82 16 41 -20 91 -38
110 -42 40 -7 84 2 84 18 0 6 -25 37 -56 70 -48 50 -61 78 -36 78 4 0 32 -16
61 -34 56 -36 101 -50 211 -62 l65 -7 -68 59 c-133 115 -122 140 28 64 120
-61 178 -71 183 -32 2 15 -9 40 -32 69 -20 26 -34 48 -32 51 3 2 41 -17 86
-42 190 -107 264 -92 170 34 -22 29 -38 55 -36 58 3 2 31 -14 63 -36 109 -74
148 -87 174 -56 13 15 9 48 -17 144 -5 20 7 12 62 -41 79 -76 130 -109 168
-109 31 0 33 17 11 80 -8 24 -13 45 -11 48 3 2 31 -17 62 -43 74 -60 108 -77
147 -73 27 2 33 8 35 31 2 16 -1 42 -7 59 -6 17 -9 33 -7 36 3 2 43 -23 89
-56 134 -97 154 -93 131 23 -7 33 -12 61 -11 62 1 1 42 -28 92 -63 90 -65 123
-81 150 -70 25 9 17 57 -31 181 -4 12 15 -1 48 -31 60 -57 133 -98 193 -110
l38 -7 -6 49 c-4 27 -9 65 -13 85 l-6 37 56 -53 c59 -56 127 -95 166 -95 21 0
22 3 17 43 -3 24 -9 51 -13 60 -9 25 8 21 64 -14 59 -36 120 -59 140 -51 11 4
13 16 8 50 l-6 46 27 -26 c78 -72 130 -63 142 24 l6 41 43 -37 c24 -20 47 -36
50 -36 3 0 22 11 41 25 63 43 150 60 311 59 127 0 157 -3 241 -27 53 -15 106
-27 117 -27 58 0 21 55 -59 90 -97 41 -234 68 -486 94 -73 7 -140 19 -148 26
-8 7 -15 23 -15 36 0 13 -2 24 -5 24 -3 0 -37 -16 -75 -35 -38 -19 -74 -35
-79 -35 -5 0 -8 15 -7 33 l1 32 -79 -3 c-80 -3 -80 -3 -62 17 10 11 16 27 12
36 -8 22 -44 12 -154 -47 -52 -27 -96 -47 -99 -44 -3 3 2 25 11 49 9 23 16 48
16 55 0 24 -44 11 -131 -38 -105 -59 -126 -64 -106 -22 26 49 30 72 14 72 -32
0 -162 -61 -192 -90 -17 -16 -36 -30 -43 -30 -19 0 -14 42 8 75 27 41 25 55
-7 55 -39 -1 -97 -29 -171 -84 -34 -25 -64 -46 -67 -46 -2 0 9 21 25 47 34 53
38 83 13 83 -25 0 -122 -47 -223 -108 -46 -28 -85 -50 -87 -48 -2 2 10 35 27
75 41 95 28 113 -53 70z"/>
<path d="M2038 8668 c-8 -13 -21 -40 -29 -61 -24 -66 -32 -66 -107 7 -38 36
-73 66 -79 66 -6 0 -19 -21 -29 -47 -30 -82 -35 -83 -102 -19 -81 77 -101 74
-117 -21 -4 -24 -11 -43 -16 -43 -5 0 -26 15 -46 34 -49 43 -75 56 -110 56
-35 0 -53 -16 -53 -46 0 -32 -19 -35 -81 -12 -30 11 -68 23 -86 25 -29 5 -33
1 -52 -36 -12 -23 -24 -41 -27 -41 -2 0 -18 10 -34 21 -35 27 -123 38 -146 18
-11 -9 -14 -22 -9 -46 5 -28 3 -33 -13 -33 -11 0 -36 7 -55 15 -41 17 -95 19
-116 6 -12 -8 -13 -14 -3 -36 l12 -26 -58 7 c-51 5 -74 1 -202 -39 -80 -26
-184 -57 -231 -71 -77 -23 -121 -48 -107 -61 24 -24 355 -44 437 -26 30 6 56
10 58 8 2 -3 -1 -16 -6 -31 -14 -35 -3 -34 73 9 35 19 66 35 70 35 4 0 4 -16
0 -35 -6 -31 -4 -36 22 -45 21 -8 38 -7 72 5 58 19 71 19 79 -2 14 -39 23 -43
56 -26 17 9 69 44 116 79 87 66 108 76 96 47 -29 -73 -37 -102 -32 -117 10
-25 38 -14 147 59 52 35 96 63 97 61 2 -2 -10 -26 -28 -54 -31 -51 -33 -82 -5
-82 9 0 68 27 132 61 64 33 118 58 121 56 2 -3 -3 -19 -11 -36 -9 -16 -16 -40
-16 -52 0 -19 4 -21 38 -16 21 4 68 28 109 57 40 27 77 50 82 50 5 0 0 -22
-11 -49 -46 -108 25 -109 150 -3 29 25 55 42 58 39 3 -3 1 -30 -5 -59 -13 -61
-7 -88 18 -88 18 0 104 57 179 118 23 19 42 32 42 30 0 -3 -13 -35 -30 -71
-16 -37 -30 -71 -30 -77 0 -37 143 26 244 107 38 31 66 50 61 42 -5 -8 -31
-49 -58 -92 -26 -44 -47 -81 -45 -83 2 -2 61 24 131 57 70 33 132 59 138 57 6
-2 -3 -21 -20 -42 -17 -21 -31 -48 -31 -59 0 -17 5 -19 32 -13 17 3 72 24 122
46 49 22 92 38 94 35 2 -2 -10 -21 -27 -42 -77 -94 -20 -96 203 -7 12 5 -1
-17 -33 -55 -28 -35 -50 -68 -48 -75 8 -20 64 -7 158 39 51 25 103 45 116 45
38 0 27 -27 -27 -66 -27 -20 -50 -43 -50 -51 0 -27 105 -10 195 31 43 20 80
36 82 36 3 0 -13 -21 -35 -47 -37 -45 -62 -84 -62 -97 0 -3 14 -6 31 -6 20 0
73 22 136 56 58 31 107 54 109 51 3 -3 -6 -22 -19 -44 -14 -21 -28 -48 -32
-60 -6 -20 -3 -23 23 -23 32 0 132 60 171 103 22 25 23 31 16 94 -14 114 -11
135 20 182 36 53 40 115 10 137 -27 20 -48 3 -113 -87 -72 -100 -84 -101 -82
-7 2 111 1 118 -16 125 -24 9 -70 -43 -96 -111 l-23 -61 -7 96 c-9 109 -25
167 -50 183 -37 23 -84 -36 -120 -145 -12 -38 -25 -69 -28 -69 -4 0 -12 34
-18 76 -28 178 -84 192 -141 35 -12 -33 -26 -63 -31 -66 -5 -3 -16 18 -24 46
-29 97 -97 186 -132 172 -8 -3 -30 -38 -49 -79 -19 -41 -41 -74 -49 -74 -21 0
-43 31 -67 95 -28 75 -55 115 -79 115 -26 0 -42 -32 -55 -110 l-11 -65 -17 69
c-22 87 -42 124 -71 137 -42 19 -68 -7 -105 -104 -6 -15 -16 -27 -24 -27 -7 0
-35 23 -62 51 -28 28 -63 57 -79 66 -27 14 -31 14 -42 -1 -6 -9 -15 -37 -19
-62 -3 -25 -10 -44 -15 -42 -5 2 -31 35 -57 73 -53 77 -80 91 -105 53z"/>
<path d="M7130 8435 c-47 -30 -91 -55 -97 -55 -8 0 -13 13 -13 33 0 47 -20 72
-53 64 -14 -4 -62 -36 -108 -72 -45 -36 -87 -65 -92 -65 -5 0 -7 10 -4 23 15
59 19 105 8 111 -29 18 -141 -45 -141 -80 0 -18 -41 -65 -53 -61 -7 2 -10 22
-8 49 4 76 -21 73 -138 -16 -41 -31 -80 -56 -88 -56 -9 0 -12 13 -11 41 3 80
-40 72 -134 -23 -37 -37 -69 -68 -72 -68 -2 0 -2 24 1 54 9 90 -29 89 -131 -4
-37 -33 -76 -60 -87 -60 -22 0 -22 -2 -2 79 3 13 1 26 -7 31 -36 22 -168 -63
-182 -117 -8 -31 -44 -67 -59 -58 -4 3 -5 22 -2 44 7 50 -10 81 -45 81 -21 0
-44 -18 -100 -76 -46 -49 -77 -74 -87 -71 -8 4 -23 24 -35 46 -42 83 -95 64
-165 -59 -56 -98 -78 -102 -85 -13 -3 34 -10 67 -15 72 -20 20 -82 -7 -127
-56 -111 -119 -107 -116 -123 -103 -9 8 -15 30 -15 55 0 81 -19 93 -75 51 -38
-29 -70 -93 -80 -159 -9 -61 -20 -67 -36 -20 -6 21 -23 60 -36 86 -34 69 -57
63 -103 -28 -20 -38 -46 -94 -58 -124 -26 -64 -36 -60 -58 25 -9 32 -20 64
-25 70 -33 41 -126 -71 -143 -171 -18 -106 -14 -104 -58 -29 -49 83 -76 114
-93 108 -7 -3 -25 -28 -40 -56 -25 -45 -27 -58 -23 -122 8 -129 88 -253 193
-302 83 -39 96 -29 44 36 -65 81 -14 96 126 36 155 -67 195 -35 75 57 -36 28
-58 48 -50 45 8 -4 56 -22 107 -42 143 -56 208 -46 152 24 -67 84 -68 82 28
39 95 -42 159 -51 170 -23 3 9 -4 36 -15 60 -12 24 -17 44 -12 44 6 0 37 -13
69 -30 32 -16 80 -34 106 -41 40 -10 49 -9 62 4 15 14 14 20 -9 67 -14 28 -22
52 -19 54 3 2 53 -13 111 -34 57 -22 106 -38 107 -36 2 2 -10 32 -27 67 -23
48 -27 65 -17 67 8 2 54 -15 103 -36 109 -48 177 -64 200 -48 14 11 14 17 -5
71 -11 33 -23 68 -27 78 -5 13 11 7 56 -22 85 -55 160 -68 168 -29 2 9 -9 35
-24 58 -15 22 -25 43 -22 45 3 3 49 -15 103 -40 54 -25 105 -45 114 -43 9 2
19 20 23 42 17 79 45 85 114 25 59 -51 91 -64 122 -49 19 8 23 15 18 36 -19
75 -19 82 4 94 20 11 33 7 101 -29 76 -39 139 -53 139 -30 0 6 -8 24 -17 39
-14 24 -14 31 -3 45 17 20 43 12 96 -31 45 -37 102 -64 135 -64 18 0 20 4 14
28 -4 15 -7 41 -8 57 -3 48 38 46 99 -5 52 -43 77 -54 115 -48 21 3 24 9 25
43 0 22 2 46 2 53 4 28 79 4 117 -38 27 -29 73 -53 91 -46 10 4 14 18 12 43
-3 37 -2 38 30 35 18 -1 64 -18 101 -38 73 -38 113 -41 119 -10 2 10 -6 32
-18 48 -12 16 -20 32 -17 34 2 3 23 -5 46 -17 83 -43 176 -35 150 13 -11 20
-9 21 47 14 45 -5 64 -3 81 9 17 12 35 14 72 9 39 -5 59 -2 93 14 52 26 148
47 333 73 77 10 193 27 257 36 133 18 153 26 124 48 -17 12 -69 15 -310 15
-261 0 -295 2 -331 19 -24 11 -54 16 -73 13 -27 -3 -33 0 -44 23 -13 28 -15
28 -91 9 -23 -5 -34 -1 -57 21 -32 31 -47 29 -119 -17 l-46 -29 -5 43 c-4 37
-9 43 -30 46 -14 2 -60 -14 -105 -37 -44 -22 -82 -38 -84 -35 -2 2 4 24 14 49
18 47 15 75 -7 75 -7 0 -51 -25 -98 -55z"/>
<path d="M1847 7902 c-21 -23 -21 -41 -1 -70 35 -50 -30 -59 -71 -9 -53 65
-67 77 -94 77 -35 0 -60 -27 -68 -74 -3 -20 -10 -39 -15 -42 -5 -3 -38 21 -73
54 -35 33 -74 63 -86 67 -35 11 -51 -19 -46 -85 l4 -55 -21 30 c-12 16 -37 47
-57 67 -62 64 -121 47 -135 -40 -4 -23 -10 -42 -13 -42 -4 0 -22 16 -41 35
-36 38 -86 65 -119 65 -30 0 -61 -34 -54 -59 7 -27 -18 -28 -41 -2 -24 26 -68
43 -102 39 -21 -2 -34 -12 -47 -38 -19 -40 -27 -40 -94 -4 -82 43 -134 26 -97
-32 l18 -27 -29 6 c-90 20 -123 20 -157 -1 -21 -13 -43 -19 -56 -15 -15 3 -34
-3 -58 -22 -31 -24 -39 -26 -61 -16 -20 9 -29 8 -50 -9 -17 -13 -41 -20 -72
-20 -50 0 -115 -32 -109 -53 6 -17 67 -33 199 -50 65 -9 125 -21 136 -27 15
-10 29 -7 76 14 l58 25 -25 -30 c-59 -70 -16 -77 108 -18 118 57 150 41 81
-41 -19 -23 -35 -46 -35 -50 0 -33 87 -4 162 55 31 25 59 45 62 45 3 0 -2 -15
-11 -34 -35 -74 16 -87 127 -31 38 19 72 35 74 35 3 0 -3 -19 -14 -42 -42 -95
37 -84 180 24 35 27 66 45 68 39 2 -5 -6 -27 -16 -48 -32 -61 -32 -103 -2
-103 26 0 57 16 157 80 70 45 113 61 113 44 0 -4 -27 -35 -60 -71 -33 -35 -60
-68 -60 -74 0 -41 87 -2 222 98 54 40 98 71 98 69 0 -2 -11 -29 -25 -60 -26
-58 -33 -116 -15 -116 25 0 76 36 152 106 45 41 83 73 85 71 2 -2 -4 -34 -12
-71 -11 -49 -13 -72 -5 -86 6 -11 14 -20 19 -20 15 0 90 59 100 79 14 25 78
64 92 56 7 -5 8 -31 4 -80 -5 -46 -3 -75 3 -79 17 -10 52 8 149 78 51 36 97
66 103 66 6 0 -1 -22 -15 -50 -26 -50 -32 -94 -16 -104 15 -10 59 12 153 74
127 85 167 81 83 -9 -25 -26 -43 -50 -40 -53 3 -3 27 -1 54 3 51 8 99 29 140
60 53 42 56 2 5 -65 -41 -54 -40 -80 3 -70 16 3 83 32 151 65 67 32 119 53
115 46 -4 -7 -26 -36 -50 -65 -49 -60 -54 -82 -19 -82 36 0 72 16 114 50 43
34 129 67 142 54 5 -5 -6 -33 -25 -64 -34 -54 -44 -93 -26 -105 19 -11 92 23
171 81 128 93 128 93 78 29 -133 -173 -76 -196 127 -50 64 45 74 50 49 24 -50
-55 -84 -105 -84 -124 0 -41 138 3 256 81 69 46 82 70 60 112 -12 23 -16 61
-16 151 0 66 -5 132 -11 148 -12 34 -58 83 -76 83 -16 0 -36 -40 -53 -105 -18
-68 -26 -74 -40 -28 -21 62 -66 146 -94 172 -22 21 -28 22 -42 10 -9 -7 -28
-40 -42 -72 -14 -32 -30 -56 -36 -54 -6 2 -36 41 -66 87 l-55 83 -8 -34 c-28
-111 -42 -144 -64 -147 -18 -3 -24 4 -32 35 -6 21 -11 45 -11 53 0 23 -36 77
-59 90 -16 8 -27 8 -43 -1 -31 -16 -29 -12 -47 -69 -9 -28 -21 -52 -26 -52 -6
-1 -44 49 -84 110 l-75 112 -33 -92 c-28 -77 -53 -128 -53 -107 0 2 -11 35
-25 74 -25 68 -66 125 -92 125 -20 0 -41 -41 -48 -95 -9 -61 -21 -85 -41 -85
-15 0 -33 35 -68 131 -9 26 -26 55 -37 65 -20 18 -21 18 -38 -3 -10 -11 -26
-58 -35 -102 -10 -45 -19 -81 -21 -81 -1 0 -21 31 -44 69 -89 151 -173 173
-200 53 -5 -24 -11 -46 -14 -48 -2 -3 -16 15 -31 40 -14 25 -39 54 -55 65 -36
26 -92 27 -114 3z"/>
<path d="M6236 7795 c-20 -14 -67 -47 -103 -75 -77 -58 -93 -62 -93 -21 0 55
-16 81 -51 81 -25 0 -45 -14 -104 -71 -40 -39 -75 -67 -78 -62 -2 4 -7 21 -11
38 -23 94 -85 68 -162 -66 -26 -44 -51 -78 -58 -76 -6 2 -16 25 -21 52 -21 96
-71 86 -130 -26 -63 -123 -75 -130 -136 -74 -30 27 -48 35 -77 35 -51 0 -62
-14 -62 -77 0 -48 -2 -53 -25 -59 -26 -6 -32 -3 -134 71 -19 14 -38 25 -43 25
-28 0 -76 -70 -103 -149 l-28 -84 -34 65 c-19 36 -45 71 -58 78 -58 31 -102
-21 -113 -132 l-5 -60 -30 57 c-51 95 -111 104 -147 23 -10 -24 -22 -60 -25
-80 -4 -21 -10 -38 -14 -38 -3 1 -17 24 -31 53 -21 44 -30 52 -55 55 -49 5
-75 -32 -88 -121 l-11 -74 -24 29 c-13 16 -37 35 -53 44 -26 13 -30 13 -48 -5
-47 -47 -53 -153 -14 -230 33 -68 190 -231 221 -231 38 0 49 42 28 102 -9 27
-15 52 -12 55 10 10 49 -10 112 -58 102 -77 135 -62 120 51 -6 42 -3 53 14 70
25 25 46 21 106 -25 37 -29 69 -40 167 -60 28 -6 31 19 8 87 -12 34 -21 68
-21 75 0 22 40 15 160 -28 169 -60 158 -59 123 -8 -43 62 -65 108 -58 119 11
18 55 10 113 -19 157 -79 233 -54 146 48 -20 23 -35 43 -33 45 2 2 42 -11 89
-30 93 -36 150 -43 170 -19 9 11 11 35 6 83 -6 63 -6 66 9 45 20 -28 95 -73
122 -73 31 0 45 24 38 62 -5 25 -2 38 9 47 21 18 48 7 108 -45 67 -57 103 -58
103 -4 0 19 -4 47 -8 63 -10 35 3 35 56 -2 115 -78 187 -52 147 53 -13 36 4
34 101 -10 105 -47 121 -44 132 24 5 30 14 52 21 52 6 0 29 -18 50 -39 43 -44
87 -67 112 -57 13 5 15 16 9 65 -5 40 -3 61 5 66 22 14 56 -5 88 -50 60 -86
113 -86 122 1 7 69 30 70 107 5 34 -28 66 -51 72 -51 6 0 18 18 27 40 23 58
51 62 109 15 48 -40 65 -42 134 -14 33 14 34 14 70 -28 20 -24 40 -43 45 -43
4 0 21 11 38 25 35 29 73 32 123 8 30 -14 39 -15 56 -4 14 8 38 10 75 5 45 -5
58 -3 74 11 17 16 24 16 48 5 15 -7 96 -16 180 -21 153 -9 226 -21 237 -39 3
-6 34 -10 68 -10 35 -1 73 -7 87 -15 29 -17 96 -20 105 -5 11 18 -24 61 -63
77 -20 9 -105 32 -187 53 -96 24 -188 55 -254 85 -56 26 -120 50 -142 52 -37
5 -52 24 -29 38 6 3 10 11 10 17 0 7 -24 9 -75 5 -41 -3 -75 -3 -75 -1 0 2 5
13 12 23 30 48 -30 70 -124 45 -33 -8 -62 -13 -65 -10 -3 2 5 23 18 45 30 54
19 66 -47 50 -27 -6 -82 -29 -123 -51 -40 -21 -75 -37 -77 -35 -2 1 10 23 26
47 35 53 39 90 10 90 -11 0 -63 -23 -116 -50 -53 -28 -99 -49 -101 -47 -2 3 5
28 17 56 18 45 18 52 5 58 -31 11 -106 -5 -180 -40 -41 -20 -75 -34 -75 -31 0
3 11 17 25 32 32 34 28 46 -17 50 -25 2 -60 -10 -128 -42 -51 -26 -100 -46
-107 -46 -20 0 -16 23 8 43 11 10 18 23 16 30 -7 21 -59 9 -134 -29 -80 -41
-89 -39 -119 18 -18 34 -31 35 -78 3z"/>
<path d="M7011 6989 c-106 -72 -161 -105 -157 -93 14 48 26 112 26 147 0 29
-4 37 -18 37 -31 0 -105 -54 -165 -120 l-58 -64 7 71 c5 49 3 72 -5 77 -15 10
-68 -18 -166 -89 l-80 -57 -3 68 c-3 74 -13 94 -46 94 -23 0 -56 -32 -140
-132 -69 -84 -99 -77 -70 16 19 62 14 86 -18 86 -36 0 -96 -56 -148 -137 -26
-40 -50 -70 -53 -66 -4 3 -7 21 -7 39 0 18 -5 45 -12 59 -19 43 -50 32 -110
-37 -105 -121 -115 -131 -126 -124 -7 4 -12 29 -12 55 0 26 -6 56 -14 67 -14
18 -17 18 -43 4 -15 -9 -56 -57 -91 -108 -35 -50 -69 -92 -77 -92 -18 0 -28
34 -20 70 11 48 -3 90 -29 90 -34 0 -60 -24 -119 -107 -30 -43 -65 -87 -77
-98 l-23 -20 8 45 c17 91 5 130 -40 130 -31 0 -75 -52 -125 -150 -49 -92 -60
-93 -79 -3 -14 61 -26 83 -46 83 -26 0 -89 -79 -129 -163 l-43 -88 -16 43 c-8
24 -24 67 -34 97 -21 61 -35 71 -64 45 -29 -26 -49 -66 -74 -149 l-21 -69 -47
71 c-54 85 -76 100 -106 75 -24 -20 -51 -116 -51 -184 0 -26 -5 -50 -11 -54
-6 -3 -37 19 -69 51 l-58 58 -11 -39 c-63 -243 -73 -316 -50 -368 7 -14 29
-37 49 -51 36 -25 240 -119 245 -113 2 2 -17 33 -41 71 -24 37 -44 70 -44 72
0 3 31 -10 68 -29 119 -60 221 -80 222 -43 0 7 -32 43 -72 80 -71 67 -72 68
-39 63 18 -3 70 -23 115 -43 100 -46 169 -51 174 -15 3 16 -11 42 -42 81 l-45
58 112 -48 c141 -61 174 -63 215 -11 28 35 32 36 59 25 15 -6 42 -17 59 -24
74 -30 85 25 25 118 l-39 61 94 -49 c150 -78 197 -65 173 49 -6 31 -14 63 -17
72 -3 8 17 -7 44 -33 60 -59 134 -85 188 -67 58 19 62 63 10 120 -20 22 -34
43 -31 46 12 12 58 -7 95 -40 47 -42 117 -78 145 -74 35 5 34 51 -2 109 -17
27 -28 49 -26 49 3 0 35 -19 72 -41 73 -45 139 -61 154 -38 5 8 6 38 3 67 -4
35 -3 52 5 52 6 0 34 -25 63 -56 59 -63 98 -84 156 -84 61 0 69 18 38 86 -14
31 -26 61 -26 66 0 5 28 -15 63 -43 92 -77 184 -113 221 -86 25 18 16 51 -29
108 -37 46 -46 89 -20 89 9 0 47 -29 85 -65 70 -66 111 -86 139 -68 20 13 26
56 12 95 -6 17 -9 33 -6 36 2 3 33 -22 69 -55 65 -62 113 -87 136 -73 13 8 12
25 -6 102 -5 21 -2 29 11 34 13 5 34 -11 84 -64 37 -40 74 -72 83 -72 25 0 48
40 48 82 0 21 3 38 6 38 3 0 26 -18 51 -40 64 -56 94 -55 122 5 12 25 23 45
26 45 2 0 20 -24 39 -54 56 -88 110 -100 121 -28 4 20 8 43 10 50 8 24 44 11
75 -28 54 -68 95 -75 107 -19 3 16 8 29 10 29 3 0 23 -16 46 -35 46 -40 52
-41 97 -19 27 14 52 16 134 11 197 -11 282 -41 559 -194 65 -35 121 -63 123
-61 2 3 -45 54 -104 115 -73 76 -137 130 -199 171 -86 56 -231 122 -268 122
-8 0 -33 18 -56 41 -34 34 -45 39 -68 34 -29 -6 -44 6 -77 61 -9 15 -22 18
-67 16 l-56 -2 6 34 c4 28 2 35 -16 41 -29 9 -76 -2 -133 -31 -27 -14 -48 -21
-48 -17 0 5 8 29 17 56 23 63 13 73 -60 58 -30 -7 -89 -30 -132 -51 -42 -22
-78 -40 -80 -40 -2 0 14 26 35 58 96 144 43 161 -147 48 -51 -30 -93 -54 -93
-52 0 1 14 40 30 85 17 46 29 85 27 87 -2 2 -77 -46 -166 -107z"/>
<path d="M2790 7058 c-11 -18 -22 -53 -26 -78 -4 -25 -9 -63 -13 -85 l-7 -40
-38 64 c-102 168 -152 175 -171 24 -4 -29 -10 -53 -14 -53 -4 0 -23 16 -42 36
-57 60 -129 114 -153 114 -35 0 -59 -33 -51 -69 6 -29 6 -30 -22 -21 -15 4
-55 19 -88 33 -125 51 -144 46 -124 -32 14 -57 5 -78 -29 -67 -11 4 -53 36
-92 71 -74 67 -106 79 -131 49 -10 -13 -11 -29 -1 -86 7 -39 11 -72 9 -74 -2
-2 -32 21 -68 51 -74 63 -121 84 -146 64 -12 -11 -14 -25 -9 -72 l6 -59 -45
40 c-54 47 -77 55 -104 35 -16 -11 -21 -25 -21 -59 0 -48 -6 -53 -36 -26 -77
69 -97 82 -124 82 -26 0 -30 -3 -30 -29 0 -17 -4 -32 -9 -35 -5 -3 -35 3 -67
15 -42 14 -70 18 -99 14 -22 -4 -74 -8 -115 -9 l-75 -1 -5 -30 c-6 -36 -27
-42 -69 -21 -40 21 -87 20 -179 -4 -124 -31 -277 -59 -429 -77 -99 -12 -143
-21 -143 -30 0 -19 34 -33 84 -33 74 0 417 -53 518 -81 28 -7 38 -15 38 -29 0
-25 36 -26 106 -5 27 8 49 15 50 15 1 0 -4 -18 -10 -41 -9 -36 -8 -42 9 -55
25 -18 60 -12 144 27 35 16 66 28 67 26 2 -2 -7 -14 -21 -27 -14 -13 -25 -32
-25 -43 0 -17 5 -19 33 -13 17 3 72 27 120 52 49 25 91 43 94 41 2 -3 -9 -24
-26 -48 -17 -23 -31 -51 -31 -62 0 -30 54 -17 148 37 85 49 117 58 108 29 -16
-58 -17 -103 -3 -109 27 -10 100 31 169 95 37 34 72 60 77 56 6 -3 4 -21 -5
-47 -26 -74 -22 -74 111 -3 69 36 125 63 125 58 0 -4 -7 -27 -17 -51 -11 -31
-13 -46 -5 -54 21 -21 64 4 148 84 46 44 84 75 84 69 0 -7 -10 -41 -22 -76
-20 -57 -21 -66 -8 -78 24 -22 69 -4 136 55 103 92 98 90 90 32 -6 -41 -4 -54
9 -68 9 -9 19 -16 23 -16 18 0 64 41 111 98 76 92 103 74 77 -52 l-7 -39 96
82 c53 46 98 81 100 79 2 -2 -5 -38 -14 -81 -10 -42 -16 -77 -12 -77 4 0 38
23 76 51 108 78 175 108 175 78 0 -7 -14 -34 -30 -61 -17 -27 -31 -59 -33 -71
-2 -19 3 -22 32 -20 24 1 63 21 133 69 54 37 101 65 104 62 3 -4 -6 -29 -20
-57 -14 -28 -26 -60 -26 -72 0 -38 60 -17 166 56 52 37 97 65 100 63 2 -3 -1
-19 -7 -36 -6 -17 -9 -45 -7 -64 2 -25 8 -34 26 -36 17 -3 41 16 102 79 44 45
80 77 80 71 0 -6 -11 -42 -25 -78 -14 -37 -23 -69 -21 -72 9 -8 159 104 190
142 30 37 31 40 30 144 -1 111 -23 225 -49 251 -20 20 -42 0 -71 -66 -38 -86
-57 -82 -93 22 -27 76 -55 115 -81 115 -26 0 -42 -32 -55 -109 l-11 -64 -46
74 c-59 94 -99 133 -127 124 -28 -9 -44 -40 -51 -100 l-5 -50 -35 50 c-47 67
-94 115 -114 115 -26 0 -46 -43 -53 -114 -3 -37 -9 -63 -13 -59 -3 4 -24 46
-45 93 -38 85 -61 120 -77 120 -4 0 -17 -14 -28 -32z"/>
<path d="M2132 6298 c-14 -14 -15 -77 -3 -130 5 -21 8 -38 6 -38 -1 0 -31 23
-66 51 -79 63 -133 91 -166 87 -42 -5 -51 -30 -30 -89 10 -28 16 -53 13 -56
-2 -3 -38 13 -78 35 -90 49 -143 65 -170 51 -15 -8 -19 -17 -14 -37 21 -94 21
-95 -7 -88 -15 3 -55 24 -89 47 -48 31 -71 39 -98 37 -29 -3 -35 -7 -38 -29
-2 -14 4 -31 12 -39 9 -7 16 -21 16 -31 0 -28 -31 -24 -101 12 -45 22 -71 29
-102 27 -38 -3 -42 -5 -39 -28 8 -71 7 -75 -15 -78 -13 -2 -36 6 -52 17 -54
39 -131 20 -131 -31 0 -18 -4 -20 -37 -13 -71 13 -76 12 -102 -28 -23 -35 -28
-38 -56 -31 -93 22 -134 0 -102 -56 l18 -30 -35 0 c-26 0 -111 -38 -313 -141
-263 -134 -323 -170 -323 -192 0 -20 129 2 271 47 208 65 257 75 411 86 102 6
149 14 184 29 62 28 88 27 102 -4 6 -14 19 -25 28 -25 17 0 71 51 117 110 26
34 27 34 27 10 -1 -14 -7 -52 -15 -85 -8 -33 -15 -66 -15 -73 0 -18 29 6 164
131 60 56 107 93 103 82 -3 -11 -16 -48 -29 -82 -17 -47 -20 -65 -11 -74 22
-22 60 0 157 91 123 114 142 117 91 16 -14 -27 -25 -57 -25 -66 0 -23 35 -52
57 -48 10 1 46 46 80 98 59 89 86 120 105 120 16 0 7 -46 -17 -89 -14 -23 -25
-54 -25 -67 0 -20 5 -24 28 -24 42 0 99 45 124 98 14 27 31 48 42 51 17 3 18
-2 13 -48 -7 -58 8 -83 44 -74 12 3 57 39 100 79 43 41 83 74 89 74 16 0 11
-22 -15 -65 -14 -22 -25 -53 -25 -69 0 -25 3 -28 28 -23 15 3 49 13 75 24 45
17 49 17 78 1 17 -10 39 -18 49 -18 9 0 59 30 111 66 51 37 99 68 106 71 8 3
3 -19 -13 -57 -14 -35 -23 -69 -19 -77 9 -26 63 -7 138 48 94 69 103 71 76 20
-51 -98 18 -92 164 15 33 24 62 42 64 41 1 -2 -13 -41 -32 -87 -20 -45 -30
-79 -23 -74 7 6 33 26 58 45 25 20 76 57 113 82 102 70 113 63 42 -29 -47 -61
-54 -81 -30 -90 26 -10 84 17 173 80 132 94 155 95 82 3 -22 -27 -43 -61 -46
-74 -19 -73 69 -41 174 65 40 40 77 70 83 66 10 -6 9 -25 -6 -115 -5 -25 -2
-39 8 -48 23 -19 49 0 101 73 84 117 94 235 29 363 -29 57 -92 123 -117 123
-24 0 -55 -48 -62 -96 -3 -24 -10 -44 -14 -44 -4 0 -13 19 -20 43 -7 23 -23
63 -36 89 -56 111 -123 71 -94 -56 7 -33 7 -53 1 -59 -14 -14 -35 5 -81 73
-53 78 -82 102 -116 98 l-29 -3 3 -77 c5 -104 -9 -102 -82 8 -74 110 -90 111
-94 1 -2 -42 -6 -77 -10 -77 -4 0 -27 30 -52 66 -51 76 -105 127 -128 122 -24
-5 -42 -46 -42 -96 0 -46 -14 -82 -31 -82 -6 0 -19 21 -30 48 -11 26 -27 64
-36 85 -13 30 -21 37 -43 37 -39 0 -90 -62 -90 -109 0 -33 -16 -25 -90 44
-105 98 -153 100 -130 6 22 -91 -5 -107 -65 -38 -77 88 -98 107 -119 107 -12
0 -27 -5 -34 -12z"/>
<path d="M6402 6124 c-51 -41 -99 -74 -106 -74 -10 0 -11 14 -4 62 5 39 5 65
-2 72 -18 18 -94 -28 -166 -101 -40 -40 -76 -73 -82 -73 -28 0 -14 75 18 95 5
3 10 15 10 26 0 40 -63 18 -162 -57 -31 -24 -61 -44 -67 -44 -6 0 -8 25 -4 70
5 65 4 70 -14 70 -32 0 -105 -53 -166 -120 l-57 -63 0 49 c-1 135 -23 129
-168 -44 -24 -29 -48 -52 -54 -52 -7 0 -9 22 -5 68 3 38 2 74 -3 81 -16 26
-59 2 -103 -56 -73 -98 -103 -127 -120 -120 -13 5 -17 19 -17 56 0 88 -35 77
-109 -33 -73 -108 -101 -112 -101 -15 0 45 -4 61 -16 66 -25 9 -64 -36 -102
-117 -19 -41 -39 -81 -45 -88 -15 -19 -27 4 -27 56 0 127 -66 104 -145 -50
l-48 -92 -25 50 c-33 67 -60 94 -94 94 -37 0 -60 -36 -73 -119 l-11 -66 -19
30 c-61 99 -66 105 -89 105 -53 0 -92 -94 -82 -195 11 -105 43 -182 100 -242
77 -78 126 -70 126 21 0 20 3 36 6 36 3 0 29 -18 57 -40 90 -72 134 -64 123
22 -4 27 -3 48 2 48 5 0 36 -16 68 -35 42 -26 69 -35 101 -35 51 0 88 29 78
61 -8 24 17 26 35 3 22 -25 81 -14 99 18 14 25 14 29 -7 57 -28 39 -20 39 60
1 92 -44 168 -39 168 11 0 9 -11 33 -25 54 -15 20 -25 39 -23 41 2 1 26 -12
53 -31 83 -55 161 -69 195 -35 21 21 18 42 -8 73 -27 31 -4 31 66 -1 71 -33
129 -41 150 -20 15 15 15 53 1 80 -18 34 -3 31 70 -12 39 -23 88 -44 111 -47
36 -5 40 -3 40 15 0 11 -4 24 -10 27 -15 9 -12 25 4 25 8 0 33 -9 57 -20 42
-19 119 -27 132 -14 3 3 1 17 -6 31 -9 21 -8 27 7 38 23 17 39 11 100 -37 67
-52 135 -53 100 0 -35 53 21 70 91 27 44 -27 106 -33 124 -11 7 8 8 27 4 47
l-6 34 54 -48 c61 -54 123 -87 162 -87 38 0 43 18 17 65 -23 43 -22 75 3 75 8
0 33 -15 56 -32 90 -69 105 -78 132 -78 36 0 44 24 25 78 -17 48 -15 50 24 22
104 -74 222 -81 182 -11 -32 56 12 81 65 37 41 -34 68 -46 101 -46 42 0 59 23
44 63 -6 17 -10 32 -9 33 2 2 39 -6 82 -16 97 -24 119 -25 140 -4 14 15 14 18
0 40 -20 30 -19 38 3 31 9 -3 39 -13 65 -21 47 -15 48 -15 59 9 29 63 295 153
568 191 63 9 128 21 145 28 l30 13 -24 13 c-36 19 -263 25 -331 9 -30 -7 -98
-13 -150 -14 -52 -2 -107 -6 -122 -10 -21 -5 -29 -3 -34 9 -10 25 -26 19 -83
-29 -29 -25 -56 -45 -61 -45 -5 0 -10 17 -12 38 -3 34 -6 37 -35 40 -20 2 -53
-8 -93 -28 l-62 -32 23 32 c41 55 43 59 38 64 -13 13 -112 -28 -169 -70 l-62
-45 7 65 c4 36 4 66 0 66 -3 0 -48 -29 -100 -65 -81 -57 -125 -78 -125 -60 0
3 7 22 15 42 49 117 -16 108 -158 -23 -59 -55 -97 -69 -97 -36 0 9 7 39 15 66
8 26 12 52 9 57 -17 29 -93 -17 -179 -108 -46 -48 -76 -66 -75 -45 1 4 9 46
19 95 10 48 16 87 12 86 -3 0 -48 -34 -99 -75z"/>
<path d="M6464 5581 c-23 -10 -73 -42 -112 -70 -38 -28 -75 -51 -82 -51 -9 0
-10 12 -6 44 5 33 3 48 -9 59 -26 26 -69 3 -126 -69 -28 -36 -56 -63 -62 -61
-7 2 -10 24 -8 54 2 43 -1 53 -18 62 -26 14 -55 3 -132 -51 l-60 -43 -33 40
-33 39 -41 -18 c-52 -23 -78 -52 -89 -96 -7 -28 -14 -35 -33 -35 -19 0 -27 7
-33 30 -15 48 -23 60 -44 63 -20 3 -46 -23 -136 -133 l-25 -29 -32 52 c-48 79
-98 68 -140 -30 -26 -63 -47 -88 -70 -88 -23 0 -30 20 -23 62 3 24 0 38 -11
47 -27 23 -60 -1 -123 -86 l-57 -78 -9 40 c-4 22 -10 50 -13 63 -6 30 -35 28
-74 -4 -37 -32 -55 -65 -70 -130 -7 -27 -14 -55 -16 -63 -3 -9 -22 15 -45 55
-51 87 -66 104 -95 104 -31 0 -49 -36 -63 -127 -6 -39 -11 -75 -11 -80 0 -4
-22 27 -50 70 -27 42 -57 80 -66 84 -27 10 -61 -42 -74 -114 -23 -122 11 -253
89 -336 58 -62 96 -83 118 -66 15 13 14 29 -3 119 l-7 35 52 -47 c80 -72 125
-63 104 21 -20 77 22 94 80 32 42 -45 94 -66 143 -57 38 8 41 19 22 73 -6 18
-10 35 -7 38 3 3 42 -9 88 -25 139 -51 187 -36 142 43 l-23 40 23 -6 c13 -3
59 -17 101 -32 101 -36 113 -31 104 40 -3 30 -4 55 -2 55 2 0 26 -11 53 -24
64 -32 107 -40 120 -24 6 7 13 33 17 57 4 24 9 48 12 53 3 5 31 -14 61 -42 42
-39 62 -50 82 -48 24 3 26 7 29 53 2 28 7 54 11 58 5 5 42 -13 84 -38 42 -26
80 -44 86 -41 6 4 13 29 17 56 4 28 9 50 11 50 3 0 27 -20 54 -44 27 -24 60
-46 74 -48 37 -8 65 17 65 58 0 44 17 44 61 -2 44 -47 92 -68 119 -54 17 9 20
20 18 63 -3 50 -2 52 24 55 18 2 37 -6 60 -26 46 -41 108 -82 124 -82 30 0 46
32 39 77 -3 23 -3 43 1 43 4 0 31 -22 60 -50 100 -95 156 -102 162 -21 2 22 8
41 14 41 5 0 30 -18 55 -40 72 -63 113 -49 113 39 0 23 4 41 8 41 4 0 23 -16
42 -35 70 -72 123 -77 155 -15 17 33 31 37 59 15 27 -21 60 -19 81 5 21 24 48
26 65 5 19 -23 41 -18 89 20 37 30 49 34 80 29 24 -4 57 1 96 14 33 11 177 44
320 72 143 28 270 54 283 57 67 16 -11 22 -305 25 -313 3 -331 4 -384 26 -61
24 -105 29 -157 17 l-34 -7 17 25 c13 20 14 30 5 46 -15 30 -44 26 -140 -19
-81 -38 -142 -50 -154 -31 -3 5 10 28 29 51 19 23 35 46 35 51 0 22 -70 5
-152 -37 -50 -25 -92 -43 -95 -41 -2 3 3 22 11 42 38 91 10 96 -118 25 -95
-53 -123 -62 -111 -32 17 39 29 92 22 98 -9 10 -72 -20 -117 -56 -19 -15 -53
-37 -75 -48 -84 -43 -105 -28 -50 38 35 42 46 80 23 80 -7 0 -32 -9 -54 -19z"/>
<path d="M3277 5536 c-3 -7 -2 -54 3 -102 4 -49 6 -91 4 -93 -2 -2 -28 21 -59
50 -68 65 -131 109 -156 109 -23 0 -34 -37 -25 -90 4 -24 2 -40 -4 -40 -5 0
-39 27 -76 60 -36 33 -74 60 -85 60 -27 0 -46 -36 -54 -102 -3 -32 -10 -58
-14 -58 -4 0 -20 14 -37 31 -54 58 -104 89 -145 89 -46 0 -63 -24 -53 -75 12
-65 -28 -83 -87 -40 -91 66 -118 76 -163 59 -19 -7 -21 -45 -4 -62 25 -25 -4
-21 -91 12 -143 57 -186 46 -163 -41 7 -25 11 -48 8 -50 -2 -2 -31 9 -64 26
-94 47 -181 54 -196 15 -4 -10 4 -33 19 -56 14 -21 23 -44 19 -50 -10 -15 -78
-3 -149 27 -66 27 -105 31 -123 13 -18 -18 -15 -29 22 -91 19 -31 33 -57 32
-57 -2 0 -32 9 -67 21 -106 34 -155 42 -178 29 -26 -14 -26 -30 0 -81 11 -23
18 -43 16 -46 -3 -2 -44 5 -92 16 -102 25 -168 27 -184 7 -15 -18 -4 -41 47
-98 l37 -41 -40 9 c-66 15 -209 11 -230 -6 -16 -13 -15 -16 16 -43 33 -27 33
-29 14 -43 -13 -10 -33 -12 -65 -8 -85 11 -149 -48 -85 -78 39 -17 30 -28 -24
-28 -49 0 -133 -28 -146 -50 -4 -6 -1 -17 5 -25 10 -12 4 -18 -34 -34 -33 -15
-49 -29 -60 -53 -19 -45 -100 -142 -299 -359 -166 -181 -225 -258 -212 -279
13 -21 34 -8 101 61 139 144 469 379 531 379 16 0 30 12 48 41 l26 40 31 -26
c36 -31 44 -26 89 51 38 66 46 72 61 40 22 -51 101 -16 114 49 12 65 48 69 85
9 40 -66 82 -33 100 77 6 35 12 65 14 67 1 2 8 -13 15 -32 6 -20 21 -42 32
-50 39 -28 82 11 152 136 17 30 19 31 27 13 4 -11 8 -33 8 -48 2 -72 96 -20
140 78 24 52 48 74 57 51 3 -9 4 -34 2 -56 -2 -25 1 -40 8 -40 6 0 48 38 93
85 45 47 83 85 85 85 3 0 2 -33 -1 -74 -4 -48 -2 -75 5 -80 28 -17 142 72 142
110 0 16 35 54 50 54 6 0 9 -21 8 -52 l-3 -53 34 2 c41 2 102 49 116 90 11 33
33 63 46 63 14 0 10 -69 -6 -130 -8 -30 -13 -55 -12 -57 5 -4 132 79 161 105
16 15 41 55 57 90 18 40 34 62 45 62 14 0 16 -7 10 -47 -21 -146 -21 -143 6
-143 38 0 109 61 147 126 79 135 98 127 64 -28 -9 -43 -14 -81 -11 -84 20 -19
117 69 160 146 32 56 72 95 89 85 12 -8 7 -102 -7 -138 -10 -27 28 -21 67 10
19 14 56 53 83 85 77 94 108 66 61 -57 -14 -37 -24 -69 -23 -71 2 -1 63 51
137 117 74 66 135 118 137 116 1 -1 -6 -28 -17 -60 -40 -120 8 -132 101 -27
61 68 125 118 137 106 4 -3 -1 -22 -10 -41 -46 -96 0 -100 88 -9 35 36 69 64
77 62 7 -3 15 -26 18 -54 4 -37 9 -48 20 -46 40 9 82 75 82 128 0 68 -91 224
-177 303 -46 43 -47 43 -66 24 -11 -11 -24 -48 -32 -88 l-13 -70 -22 41 c-66
128 -142 140 -142 23 0 -33 -16 -39 -25 -8 -10 29 -63 87 -96 105 -35 18 -75
18 -82 0z"/>
<path d="M3812 4978 c-16 -16 -15 -49 3 -72 44 -59 -24 -60 -111 -2 -63 42
-99 53 -119 36 -22 -19 -18 -42 16 -89 17 -24 28 -45 26 -48 -3 -3 -32 13 -64
35 -83 56 -121 74 -143 67 -27 -9 -25 -44 5 -85 46 -63 -1 -68 -97 -11 -36 22
-77 43 -92 47 -48 12 -73 -36 -43 -81 56 -82 59 -81 -47 -25 -76 39 -107 50
-135 48 -32 -3 -36 -6 -39 -35 -2 -20 8 -53 28 -92 16 -34 28 -61 25 -61 -3 0
-38 16 -77 36 -119 60 -217 81 -246 52 -18 -18 -15 -30 17 -79 17 -24 29 -45
27 -46 -1 -1 -23 8 -49 21 -26 13 -70 27 -98 31 -59 8 -179 -2 -179 -16 0 -4
29 -30 65 -56 35 -27 64 -54 65 -60 0 -16 7 -17 -91 11 -121 34 -152 38 -173
23 -23 -17 -16 -41 24 -92 40 -50 38 -59 -7 -36 -69 34 -217 54 -251 33 -18
-12 -1 -52 45 -103 35 -39 36 -42 13 -35 -98 27 -177 46 -197 46 -48 0 -41
-48 17 -114 37 -42 36 -42 -48 -16 -72 23 -148 26 -187 8 -22 -10 -26 -17 -21
-40 3 -15 4 -28 3 -29 -1 0 -36 -4 -79 -8 -54 -6 -84 -14 -103 -30 -16 -12
-44 -22 -64 -22 -74 -3 -95 -12 -101 -44 -4 -25 -11 -31 -45 -39 -102 -22
-120 -30 -125 -59 -3 -19 -17 -35 -45 -51 -30 -16 -39 -28 -38 -44 2 -16 -6
-25 -30 -35 -39 -17 -49 -29 -71 -88 -9 -26 -44 -89 -77 -140 -70 -109 -134
-238 -148 -298 -17 -78 17 -51 151 119 140 177 299 306 363 294 17 -3 46 2 68
11 36 15 41 15 64 0 37 -25 65 -13 143 61 l70 66 0 -51 c0 -86 44 -83 107 9
22 30 45 55 53 55 8 0 18 -17 25 -42 13 -54 17 -57 54 -39 45 24 78 63 91 112
13 46 42 80 59 69 6 -3 14 -24 17 -46 4 -23 13 -43 20 -46 35 -13 111 57 160
148 l29 52 8 -54 c4 -29 14 -60 22 -68 28 -28 82 29 136 143 11 25 25 46 29
46 4 0 10 -23 13 -51 7 -59 20 -79 46 -72 34 9 69 57 91 125 12 38 26 71 32
74 16 10 35 -21 43 -71 7 -52 20 -56 70 -25 38 24 65 74 65 122 0 35 23 78 42
78 6 0 9 -27 6 -72 -3 -69 -2 -73 19 -76 47 -7 141 116 160 208 8 43 23 48 23
8 0 -43 16 -100 32 -109 21 -13 46 9 92 80 44 69 80 101 97 84 4 -4 -1 -28
-11 -52 -34 -74 -23 -103 30 -81 35 15 67 54 108 136 53 106 83 107 64 3 -10
-54 -2 -89 19 -89 17 0 56 45 79 91 33 65 71 113 80 100 4 -7 3 -33 -1 -59
-16 -95 -9 -101 46 -49 22 20 41 52 52 87 14 42 23 56 40 58 18 3 24 -4 33
-38 20 -76 62 -63 108 35 40 83 67 90 60 15 -3 -28 -2 -53 2 -55 13 -8 51 27
71 67 43 85 12 208 -80 310 -62 69 -112 93 -139 66z"/>
<path d="M6724 4946 c-23 -13 -76 -49 -119 -80 -90 -68 -112 -78 -100 -50 38
90 47 126 37 136 -19 19 -73 -12 -158 -94 -45 -43 -84 -78 -87 -78 -3 0 1 16
9 35 28 68 10 125 -35 110 -10 -3 -54 -42 -96 -86 -42 -44 -78 -79 -80 -77 -2
2 1 26 6 53 24 124 -18 128 -137 14 -106 -102 -120 -102 -116 -2 5 87 1 96
-36 82 -40 -15 -79 -55 -128 -131 -43 -66 -75 -95 -95 -83 -5 4 -9 38 -7 81 3
79 -5 96 -43 87 -22 -6 -80 -69 -126 -135 -17 -26 -42 -52 -54 -58 -22 -12
-22 -12 -16 43 7 70 -6 84 -50 57 -18 -10 -50 -43 -73 -72 -108 -138 -123
-142 -118 -25 3 78 2 82 -19 85 -34 5 -100 -68 -139 -154 -18 -41 -36 -74 -38
-74 -3 0 -15 32 -27 71 -12 39 -28 73 -36 76 -42 16 -93 -51 -93 -122 0 -44
-15 -75 -37 -75 -13 0 -15 9 -9 61 7 62 -2 89 -29 89 -72 0 -185 -253 -155
-345 14 -43 113 -143 172 -175 72 -38 95 -14 62 65 -8 20 -13 39 -10 42 2 2
28 -12 56 -31 56 -38 87 -50 117 -44 26 5 28 49 4 89 -39 63 -30 63 125 5 65
-25 120 -44 121 -42 2 2 -14 37 -36 79 -21 43 -36 77 -34 77 2 0 36 -22 76
-48 157 -104 213 -97 127 17 -22 29 -40 57 -40 62 0 5 13 9 29 9 28 0 106 -52
140 -94 20 -24 70 -48 87 -42 21 8 17 34 -16 105 -17 35 -29 65 -27 67 2 2 21
-9 42 -23 109 -74 235 -118 235 -82 0 6 -14 30 -31 54 -66 92 -8 91 114 -2 73
-55 105 -70 132 -59 20 7 19 32 -5 85 -11 24 -19 45 -17 47 2 2 36 -26 77 -61
59 -53 80 -65 107 -65 26 0 36 6 44 24 10 20 8 31 -10 60 -27 43 -25 83 4 78
11 -2 55 -35 99 -73 110 -96 156 -93 122 8 -9 25 -14 49 -11 51 3 3 36 -16 74
-42 73 -51 141 -79 166 -70 19 8 19 41 0 74 -25 43 -16 43 36 -2 78 -66 111
-88 137 -88 33 0 38 25 18 102 -10 38 -15 72 -12 75 3 4 35 -22 70 -56 67 -63
123 -95 150 -85 21 8 21 48 0 65 -22 18 -46 68 -38 80 11 18 52 1 135 -56 58
-40 89 -55 114 -55 19 0 37 5 40 10 4 6 -8 33 -26 61 -22 35 -29 53 -21 61 16
16 46 5 60 -24 28 -60 145 -124 177 -98 16 13 11 31 -22 80 -24 36 -29 65 -14
74 19 12 42 -8 87 -75 38 -58 50 -69 73 -69 49 0 75 48 49 90 -9 15 -10 22 -1
31 19 19 61 1 112 -46 27 -25 53 -45 60 -45 6 0 19 16 28 35 20 43 28 44 42 5
12 -36 27 -38 58 -8 17 16 38 23 71 24 26 1 67 7 92 13 51 14 120 9 335 -20
208 -28 236 -25 178 20 -28 23 -102 46 -253 81 -119 28 -216 66 -235 93 -12
17 -21 19 -65 14 -46 -6 -53 -4 -72 18 -19 22 -30 25 -83 25 -34 0 -64 3 -68
6 -3 4 5 21 18 39 14 17 25 37 25 42 0 36 -82 16 -197 -47 -77 -43 -77 -43
-58 -14 40 61 65 113 58 117 -16 10 -110 -29 -152 -62 -48 -38 -77 -36 -67 4
20 82 22 75 -17 75 -24 0 -69 -17 -132 -50 -86 -46 -121 -54 -78 -19 27 23 73
91 67 100 -3 5 -18 9 -33 9 -23 0 -70 -21 -234 -107 -16 -8 -30 -13 -32 -11
-2 2 9 24 25 48 85 129 -15 97 -243 -76 l-48 -36 22 53 c30 75 41 118 34 129
-9 14 -15 13 -61 -14z"/>
<path d="M3964 4376 c-3 -8 2 -25 10 -39 14 -21 14 -26 2 -36 -20 -17 -55 -5
-105 35 -76 59 -118 41 -107 -47 4 -28 3 -49 -1 -47 -4 1 -38 18 -75 36 -99
50 -127 34 -103 -57 7 -28 11 -51 8 -51 -2 0 -23 13 -46 29 -24 16 -61 34 -84
41 -37 11 -45 11 -69 -4 -27 -18 -27 -26 -8 -93 8 -30 -4 -29 -93 1 -67 23
-114 31 -155 27 -23 -1 -23 -34 -1 -72 9 -15 14 -32 9 -36 -4 -4 -46 3 -94 15
-48 12 -106 22 -129 22 -39 0 -43 -2 -43 -25 0 -16 15 -42 40 -69 22 -24 40
-46 40 -48 0 -3 -26 4 -57 15 -78 27 -195 29 -220 4 -17 -17 -17 -19 0 -49 10
-17 16 -33 13 -35 -2 -2 -30 0 -62 6 -146 27 -186 -1 -116 -82 8 -9 13 -19 11
-22 -3 -2 -45 5 -94 16 -111 24 -188 22 -193 -4 -2 -11 11 -37 29 -59 l32 -41
-39 9 c-21 5 -73 9 -114 9 -89 0 -96 -11 -54 -75 27 -41 28 -43 9 -56 -15 -11
-41 -13 -121 -8 -158 10 -186 -4 -117 -62 51 -43 38 -54 -58 -54 -79 0 -139
-16 -154 -40 -5 -8 4 -21 21 -35 41 -33 21 -50 -60 -50 -49 0 -69 -5 -85 -19
-26 -24 -27 -42 -1 -56 29 -16 17 -28 -65 -65 -40 -19 -76 -38 -79 -44 -4 -5
5 -18 19 -27 14 -9 25 -20 25 -25 0 -4 -20 -17 -44 -28 -38 -16 -50 -29 -76
-83 -27 -52 -67 -97 -236 -263 -112 -110 -204 -206 -204 -213 0 -29 51 -10
107 41 131 121 395 265 497 272 23 1 44 3 47 4 4 0 17 26 29 56 12 30 27 55
32 55 5 0 21 -9 35 -20 50 -39 84 -18 93 59 l6 46 22 -43 c18 -34 28 -43 45
-40 31 4 57 63 64 147 3 39 10 71 14 71 5 0 9 -4 9 -8 0 -5 18 -37 40 -70 31
-48 45 -62 64 -62 14 0 28 6 33 13 4 6 8 57 8 111 0 64 4 101 11 103 6 2 30
-26 52 -62 59 -93 102 -84 117 25 17 118 50 148 50 44 0 -47 3 -59 17 -62 41
-8 79 41 125 163 32 85 63 67 63 -37 0 -54 7 -58 55 -28 37 23 77 80 104 147
l18 46 6 -42 c3 -23 11 -48 17 -56 37 -45 115 13 125 93 7 54 24 93 44 100 11
4 12 -3 7 -30 -8 -43 6 -83 34 -98 32 -17 64 24 95 123 26 85 47 119 60 97 4
-6 4 -32 0 -59 -8 -62 9 -80 53 -57 29 15 82 102 82 135 0 9 10 32 21 51 20
32 22 33 35 15 8 -10 14 -39 14 -63 0 -53 14 -82 41 -82 19 0 58 54 121 170
16 27 33 50 38 50 7 0 10 -24 8 -62 -3 -54 0 -63 15 -66 24 -5 51 20 93 86 19
28 36 52 39 52 2 0 14 -18 25 -40 31 -61 54 -54 89 24 16 35 40 71 53 80 21
15 24 15 36 -1 7 -10 10 -30 6 -49 -14 -78 51 -43 96 51 29 62 50 79 66 54 3
-6 1 -29 -7 -51 -12 -36 -11 -42 4 -53 39 -28 85 12 129 115 l24 54 25 -44
c19 -35 30 -45 49 -45 52 0 101 171 70 245 -15 36 -106 117 -186 165 -63 38
-82 42 -90 21z"/>
<path d="M6402 4173 c-63 -46 -118 -83 -124 -83 -6 0 -8 24 -6 58 3 53 1 57
-20 60 -29 4 -82 -28 -154 -95 -32 -29 -65 -53 -73 -53 -23 0 -18 36 11 86 30
51 26 74 -13 74 -38 0 -73 -25 -146 -103 -83 -89 -92 -89 -92 -7 0 63 -1 65
-27 68 -22 3 -43 -13 -118 -84 -78 -74 -94 -84 -106 -73 -10 11 -12 27 -6 64
10 67 5 95 -18 95 -23 0 -100 -61 -164 -129 -26 -29 -50 -51 -52 -49 -2 2 3
22 11 43 18 52 18 80 0 95 -29 24 -95 -19 -137 -90 -26 -43 -58 -80 -71 -80
-5 0 -7 26 -5 58 3 52 1 57 -19 60 -55 8 -163 -85 -163 -140 0 -32 -16 -37
-25 -8 -9 29 -54 80 -71 80 -29 0 -45 -48 -53 -152 -7 -103 -16 -133 -45 -158
-41 -33 -1 -127 87 -207 84 -78 133 -68 124 24 l-6 53 47 -39 c58 -48 86 -63
106 -55 25 10 27 38 7 102 -10 34 -17 62 -15 62 2 0 20 -12 41 -26 94 -64 170
-89 180 -58 2 6 -8 26 -21 45 -44 60 -58 91 -48 101 13 13 68 -12 121 -56 31
-26 52 -36 70 -34 26 3 26 4 23 77 l-2 74 39 -36 c53 -48 112 -77 156 -77 42
0 45 16 14 66 -11 19 -18 34 -14 34 3 0 42 -21 86 -46 53 -31 94 -47 117 -48
l37 -1 0 45 c0 25 -4 61 -8 80 l-7 36 74 -73 c108 -106 149 -109 153 -10 0 29
2 53 2 55 1 2 29 -26 64 -62 47 -50 69 -66 90 -66 34 0 51 37 43 93 -4 23 -2
37 4 37 6 0 42 -29 80 -65 68 -64 105 -83 136 -71 11 4 14 13 10 30 -6 26 8
44 20 25 15 -24 99 -69 130 -69 41 0 48 20 39 106 -4 35 -4 64 -2 64 3 0 17
-21 32 -46 44 -75 93 -124 125 -124 16 0 30 7 34 16 9 23 7 75 -4 113 -5 19
-8 36 -6 39 2 2 40 -26 83 -63 91 -77 150 -112 166 -96 5 5 9 41 8 78 l-2 68
63 -63 c96 -96 138 -98 138 -7 0 30 4 55 9 55 5 0 33 -23 63 -50 88 -83 128
-82 128 5 0 32 4 55 11 55 5 0 40 -18 76 -40 69 -42 119 -51 129 -25 4 9 -5
38 -18 65 -14 28 -23 50 -21 50 2 0 21 -9 41 -19 58 -29 105 -35 139 -17 86
44 511 129 663 131 123 3 120 2 120 14 0 5 -26 19 -57 31 -80 30 -198 35 -429
20 -173 -12 -196 -11 -211 2 -14 12 -32 15 -71 11 -44 -5 -55 -2 -66 13 -12
16 -18 17 -40 6 -39 -18 -54 -15 -79 13 l-22 25 -53 -25 c-74 -34 -78 -33 -74
20 6 66 -12 67 -120 11 -50 -26 -92 -45 -95 -43 -2 3 6 23 18 46 44 85 1 90
-139 14 -46 -25 -86 -42 -89 -39 -3 3 7 19 21 37 15 18 26 41 24 53 -4 31 -54
24 -141 -21 -118 -61 -111 -61 -103 -2 4 29 10 65 13 81 5 27 -3 23 -121 -67
-70 -54 -130 -95 -132 -92 -3 3 4 44 15 92 12 48 21 91 21 96 0 4 -64 -41
-142 -101 -78 -60 -143 -108 -145 -106 -2 1 13 49 32 106 19 58 34 107 33 110
-2 3 -54 -31 -116 -77z"/>
<path d="M4063 3764 c-9 -4 -9 -11 -1 -29 14 -31 4 -55 -22 -55 -11 0 -43 16
-71 35 -78 54 -118 44 -80 -19 24 -38 27 -65 9 -67 -30 -3 -56 5 -94 27 -47
28 -111 32 -120 9 -4 -9 6 -33 21 -55 15 -22 25 -46 21 -55 -7 -19 -59 -19
-146 0 -90 20 -139 19 -147 -2 -6 -16 16 -41 83 -90 l29 -21 -70 19 c-92 25
-175 25 -206 0 l-24 -19 20 -22 c11 -12 39 -33 63 -47 24 -14 41 -27 39 -29
-2 -3 -49 1 -104 7 -111 13 -184 6 -204 -18 -12 -13 -8 -21 26 -51 l40 -35
-55 7 c-135 17 -160 18 -185 12 -32 -8 -28 -32 17 -89 17 -21 28 -41 25 -44
-3 -2 -40 3 -82 12 -139 31 -212 -11 -133 -77 30 -24 31 -27 14 -34 -10 -4
-65 3 -121 15 -85 18 -108 20 -127 10 -22 -12 -22 -12 22 -50 58 -50 47 -65
-36 -50 -82 15 -139 14 -154 -4 -10 -12 -8 -22 14 -55 14 -22 26 -42 26 -44 0
-2 -38 -4 -83 -3 -97 2 -122 -9 -112 -53 6 -27 6 -27 -44 -22 -52 5 -51 6
-109 -68 -18 -22 -27 -25 -83 -23 -67 2 -89 -8 -89 -37 0 -31 -86 -96 -244
-186 -184 -105 -282 -168 -318 -202 -71 -67 -4 -51 176 42 l140 71 191 5 c188
5 192 5 233 33 23 15 44 27 47 27 2 0 14 -18 25 -39 11 -22 25 -43 31 -46 16
-10 50 26 89 95 19 33 40 60 45 60 6 0 21 -21 35 -48 20 -37 30 -47 50 -47 21
0 31 12 65 81 45 92 61 114 82 114 13 0 15 -10 11 -50 -7 -66 9 -89 46 -72 30
13 82 89 91 133 8 37 18 37 32 -1 8 -21 18 -30 33 -30 24 0 73 47 97 94 9 17
25 44 36 59 23 33 37 22 37 -30 0 -17 5 -35 11 -38 35 -22 110 42 134 115 16
48 46 86 58 73 4 -3 7 -21 7 -39 0 -49 9 -64 40 -64 38 0 88 58 125 144 l29
68 28 -56 c16 -31 32 -56 38 -56 15 0 38 40 66 112 14 37 30 68 35 68 4 0 15
-13 24 -30 31 -60 82 -23 113 82 9 32 19 58 23 58 3 0 15 -20 27 -45 34 -71
64 -62 100 30 11 27 24 51 29 52 6 2 20 -12 31 -32 39 -65 76 -42 107 67 28
99 83 147 70 62 -6 -43 4 -74 26 -74 22 0 80 66 100 115 24 59 39 70 39 31 0
-40 18 -76 38 -76 26 0 47 25 81 100 l29 65 -5 -76 c-6 -87 1 -98 47 -74 44
23 78 82 96 165 24 117 4 164 -96 225 -88 53 -213 93 -247 79z"/>
<path d="M5865 3558 c-35 -19 -76 -61 -117 -121 -21 -32 -43 -55 -48 -52 -5 3
-12 27 -15 53 -17 131 -59 124 -176 -29 -33 -43 -62 -79 -64 -79 -2 0 -3 34
-2 75 2 59 -2 78 -16 92 -13 14 -21 15 -35 7 -26 -17 -68 -82 -98 -154 -15
-36 -31 -69 -36 -75 -4 -5 -8 24 -8 64 0 40 -5 81 -10 92 -28 52 -93 -9 -129
-123 l-24 -73 -19 45 c-10 25 -26 50 -34 57 -25 18 -60 -4 -92 -56 -61 -99
-77 -183 -48 -239 39 -76 141 -172 181 -172 29 0 36 18 24 66 -4 22 -9 42 -9
47 0 15 31 6 120 -33 50 -22 93 -40 95 -40 2 0 -11 32 -30 72 -19 39 -33 73
-31 75 2 2 33 -14 69 -36 93 -57 163 -91 186 -91 33 0 44 33 26 76 -8 20 -15
38 -15 40 0 2 24 -16 54 -40 82 -66 116 -71 116 -18 0 15 -4 42 -9 60 -5 17
-7 32 -3 32 4 0 41 -21 82 -45 113 -69 181 -60 152 18 -6 17 -10 32 -9 33 1 2
29 -19 61 -47 32 -27 61 -49 66 -49 19 0 38 32 44 75 4 25 11 45 16 45 4 0 20
-20 34 -44 34 -59 72 -89 96 -76 10 5 25 28 34 50 9 22 20 40 26 40 5 0 35
-23 66 -51 46 -41 61 -50 87 -47 30 3 32 6 34 43 1 22 2 46 2 53 1 6 10 12 21
12 21 0 40 -16 92 -78 19 -23 35 -32 57 -32 38 0 50 25 43 85 l-5 40 49 -46
c69 -63 98 -81 131 -77 27 3 28 5 28 56 0 83 29 88 110 21 55 -45 87 -56 121
-40 20 9 24 18 24 52 l0 41 47 -41 c77 -69 126 -67 131 5 5 64 8 66 47 40 44
-30 97 -49 127 -44 18 2 24 10 26 36 4 43 21 48 71 23 56 -29 76 -27 91 9 16
38 33 38 77 0 39 -35 52 -31 73 20 14 33 31 38 50 15 22 -27 50 -28 76 -4 18
17 37 23 86 25 35 1 114 14 176 28 143 33 249 42 334 27 99 -17 130 2 61 38
-68 34 -144 43 -339 39 -185 -3 -185 -3 -203 21 -18 24 -37 25 -99 6 -21 -7
-22 -6 -8 21 8 15 13 31 10 36 -9 14 -54 9 -94 -12 -59 -30 -71 -27 -68 18 3
36 2 37 -32 37 -19 -1 -55 -5 -80 -9 l-45 -8 23 24 c12 13 22 28 22 32 0 18
-86 -4 -152 -39 -39 -20 -72 -34 -74 -32 -2 2 3 21 12 42 10 25 12 41 5 48
-18 18 -77 -3 -139 -49 -66 -49 -119 -63 -114 -30 2 11 15 34 28 51 72 95 -21
83 -160 -22 -32 -24 -60 -42 -62 -40 -2 2 3 25 12 51 19 54 9 76 -35 76 -34 0
-71 -25 -132 -89 -27 -28 -53 -51 -59 -51 -16 0 -11 33 10 65 11 17 20 40 20
53 0 43 -48 28 -159 -49 -56 -39 -105 -69 -107 -66 -3 2 0 16 6 31 5 15 10 42
10 61 0 71 -57 50 -172 -65 -85 -85 -86 -85 -66 28 6 38 9 76 5 86 -6 16 -9
16 -39 0 -18 -9 -70 -53 -115 -97 -52 -50 -83 -74 -83 -64 0 9 5 48 12 87 20
116 -9 117 -147 6 -38 -30 -73 -52 -77 -48 -4 4 -2 29 4 55 5 26 7 54 4 62 -6
18 -33 19 -61 3z"/>
<path d="M4294 3195 c-16 -11 -17 -19 -7 -71 6 -33 15 -68 19 -79 4 -11 -19 5
-55 37 -34 32 -73 61 -85 64 -25 6 -86 -20 -86 -36 0 -5 18 -26 40 -46 73 -68
40 -87 -50 -29 -58 37 -123 47 -133 21 -7 -17 17 -63 51 -98 14 -16 21 -28 16
-28 -5 0 -59 20 -119 44 -61 24 -111 41 -113 37 -1 -5 15 -50 37 -101 22 -50
35 -90 28 -87 -188 77 -222 85 -251 64 -17 -12 -17 -16 -3 -43 9 -16 30 -44
48 -63 l33 -34 -35 6 c-82 16 -186 19 -207 8 -26 -14 -29 -58 -7 -101 14 -28
14 -30 -2 -30 -10 0 -38 7 -63 16 -47 17 -131 21 -168 10 -31 -10 -27 -33 9
-51 16 -9 28 -22 26 -28 -4 -12 -28 -13 -167 -5 -60 3 -65 1 -68 -18 -2 -12 8
-35 22 -52 15 -16 26 -33 26 -36 0 -3 -65 -5 -145 -3 -122 2 -147 -1 -161 -14
-15 -15 -13 -19 25 -50 23 -18 40 -37 38 -43 -2 -6 -46 -13 -102 -16 -116 -6
-132 -18 -95 -68 30 -40 21 -58 -32 -66 -114 -18 -146 -40 -93 -64 45 -21 43
-23 -122 -99 -41 -19 -41 -28 -3 -48 39 -20 38 -31 -6 -50 -33 -14 -35 -16
-28 -50 3 -19 2 -35 -2 -35 -5 0 -24 -9 -42 -20 -28 -17 -31 -23 -22 -40 21
-39 -42 -167 -198 -403 -73 -110 -81 -127 -61 -127 23 0 79 49 244 210 94 92
207 195 253 229 45 34 92 75 104 92 24 32 38 35 68 17 16 -11 23 -10 37 5 14
14 18 33 16 84 l-1 67 22 -44 c24 -48 54 -62 76 -35 7 8 15 47 18 85 2 39 7
70 11 70 3 -1 15 -20 27 -43 15 -31 27 -43 46 -45 21 -3 28 3 42 38 9 22 16
60 16 85 0 59 12 62 34 10 29 -71 71 -71 105 -2 11 23 25 67 32 97 13 63 29
88 29 47 0 -15 7 -44 15 -63 31 -74 76 -17 96 120 l12 80 42 -84 42 -84 32 97
c49 146 98 193 85 82 -6 -46 -4 -56 10 -61 39 -15 121 100 110 154 -5 24 -2
32 14 41 26 14 32 6 32 -45 0 -56 16 -65 50 -27 26 29 70 128 70 158 0 31 18
22 30 -15 7 -22 21 -47 32 -56 17 -16 19 -16 38 1 11 10 28 44 36 74 18 60 50
121 65 121 5 0 9 -32 8 -71 -1 -39 3 -75 9 -81 24 -24 86 41 118 127 l18 49 9
-34 c16 -69 23 -85 32 -84 6 0 33 37 60 82 28 45 53 82 56 82 4 0 10 -19 13
-42 10 -69 18 -75 60 -49 25 16 39 33 46 61 18 67 59 77 79 17 8 -22 14 -28
22 -20 15 15 49 139 49 177 0 50 -38 111 -109 179 -77 72 -119 93 -147 72z"/>
<path d="M5735 2876 c-16 -7 -67 -41 -112 -75 -44 -33 -86 -61 -91 -61 -6 0
-4 20 5 49 17 52 13 78 -12 87 -40 16 -128 -54 -145 -116 -6 -19 -14 -41 -19
-49 -15 -24 -39 4 -47 54 -9 65 -25 72 -67 35 -20 -17 -41 -47 -47 -65 -6 -19
-15 -35 -18 -35 -4 0 -20 16 -35 35 -33 42 -58 44 -86 9 -17 -22 -21 -41 -21
-103 -1 -42 -7 -89 -14 -106 -11 -25 -11 -35 1 -58 20 -40 254 -231 264 -216
4 7 10 48 14 91 l7 79 68 -65 c37 -36 75 -66 84 -66 19 0 34 26 42 79 4 22 11
41 16 41 5 0 30 -20 56 -44 56 -51 85 -68 106 -60 22 8 29 39 21 90 -9 62 8
57 78 -21 79 -88 107 -85 123 14 4 22 10 41 14 41 5 0 22 -22 39 -50 17 -27
42 -57 57 -67 26 -17 27 -16 45 6 11 13 19 38 19 57 0 21 5 34 13 34 7 0 44
-31 82 -70 47 -47 72 -66 77 -57 4 6 10 47 14 89 4 43 9 78 13 78 3 0 21 -26
40 -57 54 -89 99 -135 130 -131 24 3 26 6 22 43 -9 95 -8 100 20 103 19 2 41
-9 80 -43 57 -49 80 -58 125 -53 23 2 31 10 39 36 5 17 13 32 18 32 5 0 25
-13 44 -30 25 -22 44 -30 71 -30 48 0 63 10 71 49 l6 32 47 -36 c38 -30 53
-36 85 -33 32 2 40 8 53 35 19 40 29 41 64 4 16 -16 42 -35 58 -42 39 -16 58
3 65 65 3 25 9 46 12 46 4 0 20 -14 37 -31 45 -48 76 -61 102 -43 11 8 26 30
32 49 14 42 23 43 62 10 37 -31 74 -41 93 -25 11 9 12 17 5 30 -14 26 -1 30
51 19 57 -13 97 -5 178 36 80 39 221 85 356 115 135 29 197 50 192 63 -2 7
-24 11 -53 11 -115 -4 -484 -23 -535 -29 -52 -5 -57 -4 -73 20 -21 31 -34 31
-96 0 l-50 -25 0 22 c0 13 5 41 10 62 5 22 7 43 4 48 -3 4 -37 -8 -76 -28 -38
-19 -72 -33 -75 -31 -2 3 2 15 9 26 11 18 11 23 -2 31 -20 12 -52 4 -132 -37
-38 -18 -68 -31 -68 -28 0 3 10 19 21 35 53 71 -27 82 -145 20 -82 -43 -92
-40 -60 21 8 17 13 37 10 45 -12 31 -161 -42 -226 -111 -38 -41 -47 -33 -36
33 17 106 -2 115 -96 44 -103 -78 -103 -78 -41 13 7 11 13 28 13 39 0 16 -5
18 -37 13 -21 -4 -80 -27 -131 -52 -118 -57 -136 -58 -88 -5 80 89 29 93 -130
9 -64 -33 -118 -58 -120 -56 -3 2 0 16 6 31 42 110 -30 121 -158 25 -29 -23
-56 -39 -59 -36 -2 3 3 19 11 36 9 16 16 39 16 51 0 47 -74 14 -211 -96 -38
-30 -69 -51 -69 -46 0 6 9 29 20 53 11 24 20 59 20 77 0 27 -4 32 -22 32 -13
-1 -36 -7 -53 -14z"/>
<path d="M4345 2550 c-4 -7 2 -25 14 -41 45 -61 -4 -86 -71 -36 -44 32 -64 38
-92 27 -35 -13 -41 -44 -17 -84 27 -43 26 -54 -4 -62 -15 -4 -44 3 -81 20 -65
30 -135 34 -155 10 -11 -14 -10 -19 11 -36 63 -49 62 -48 49 -64 -13 -16 -26
-15 -99 3 -73 19 -97 -13 -56 -73 14 -21 23 -41 20 -46 -9 -15 -61 -8 -128 17
-69 26 -111 31 -135 16 -21 -13 -6 -53 29 -76 39 -26 48 -54 24 -73 -15 -11
-42 -13 -129 -8 -160 9 -187 -18 -89 -86 25 -18 54 -39 63 -45 13 -10 -17 -11
-151 -6 -93 3 -168 4 -168 1 0 -3 26 -23 58 -45 66 -47 98 -80 88 -90 -4 -4
-58 -10 -120 -13 -116 -5 -166 -22 -166 -55 0 -17 36 -52 62 -61 36 -11 11
-28 -65 -45 -76 -16 -127 -40 -127 -59 0 -6 9 -19 21 -31 16 -16 28 -19 63
-14 29 5 46 3 51 -5 11 -17 4 -20 -86 -36 -120 -21 -155 -32 -186 -58 -24 -20
-25 -26 -14 -40 9 -10 29 -16 60 -16 55 0 85 -14 61 -30 -8 -5 -35 -12 -60
-15 -81 -11 -153 -30 -157 -42 -3 -7 18 -28 46 -48 28 -20 51 -41 51 -45 0 -5
-25 -14 -55 -20 -30 -6 -65 -20 -77 -31 l-23 -19 35 -30 35 -29 -44 -39 c-41
-35 -43 -39 -30 -60 10 -17 11 -24 2 -30 -6 -4 -11 -28 -11 -53 1 -49 -28
-111 -155 -329 -66 -114 -91 -180 -68 -180 7 0 94 80 194 179 201 197 256 241
299 241 31 0 48 27 48 76 0 22 4 24 46 24 l46 0 -7 48 c-4 26 -8 52 -8 57 -2
10 8 10 94 -1 54 -7 66 7 43 51 -8 15 -14 28 -14 29 0 0 23 1 51 1 41 0 54 4
70 23 17 22 17 26 4 52 -19 36 -19 54 -1 69 11 9 16 5 26 -19 14 -35 44 -40
60 -11 13 25 13 86 -1 134 -6 22 -9 40 -7 42 2 2 40 -21 86 -51 l82 -54 0 104
c0 58 3 111 6 120 10 26 31 18 53 -19 28 -48 49 -54 74 -24 16 20 18 34 14 82
-3 31 -3 66 0 77 8 29 40 24 57 -8 45 -87 104 -46 91 63 -12 93 28 127 65 55
39 -76 79 -42 104 88 10 50 15 62 20 47 5 -11 13 -32 18 -48 13 -35 50 -45 84
-22 25 16 26 20 19 69 -13 82 -12 149 2 153 7 3 22 -12 34 -31 12 -20 30 -41
40 -46 26 -14 56 18 64 67 12 84 20 108 35 108 11 0 16 -13 18 -47 2 -38 7
-48 21 -48 24 0 45 25 71 85 12 27 23 51 25 53 2 2 18 -6 34 -18 45 -31 72
-23 99 30 12 25 26 46 30 48 4 1 13 -11 19 -28 27 -72 94 -8 129 125 24 88 19
119 -23 154 -95 79 -317 165 -338 131z"/>
<path d="M5543 2183 c-26 -20 -64 -49 -83 -65 -43 -35 -73 -36 -112 -3 -32 27
-60 32 -76 13 -38 -47 -54 -211 -26 -276 33 -80 110 -127 143 -88 7 8 18 45
25 82 l12 69 30 -54 c48 -89 79 -93 116 -16 12 25 25 45 29 45 3 0 14 -26 23
-57 36 -129 81 -158 119 -75 l21 47 7 -51 c9 -71 24 -94 59 -94 29 0 63 31 75
71 13 38 25 17 25 -42 0 -115 30 -127 106 -43 60 67 78 66 68 -5 -5 -41 -3
-51 21 -79 15 -18 35 -32 45 -32 21 0 58 42 66 77 9 36 21 27 27 -19 4 -31 14
-51 37 -70 50 -45 83 -34 96 31 9 45 27 33 39 -27 17 -89 63 -104 100 -32 9
17 20 30 25 30 5 0 21 -22 35 -49 13 -27 29 -52 35 -56 5 -3 32 12 58 34 27
23 53 41 59 41 6 0 18 -18 26 -39 22 -53 34 -58 67 -26 21 20 35 26 52 22 13
-4 55 -13 93 -22 84 -19 169 -57 265 -119 121 -78 180 -103 180 -74 0 50 -388
428 -439 428 -6 0 -18 14 -26 30 -19 36 -50 50 -111 50 -48 0 -52 4 -28 31 9
10 13 23 9 28 -7 13 -85 14 -137 2 -46 -11 -48 -4 -6 32 28 25 30 30 16 43
-12 12 -37 16 -102 15 -53 -1 -86 3 -86 9 0 6 10 24 22 41 19 26 20 31 8 39
-26 17 -122 11 -167 -10 -24 -10 -43 -17 -43 -16 0 2 9 23 20 47 24 53 24 63
4 83 -21 22 -57 20 -104 -4 -68 -35 -112 -20 -71 24 12 12 21 28 21 34 0 17
-104 15 -165 -3 -65 -20 -85 -14 -133 40 -22 25 -48 45 -59 45 -11 0 -49 -22
-83 -50 -34 -27 -71 -50 -81 -50 -12 0 -27 17 -44 50 -14 28 -32 50 -39 50 -8
0 -36 -16 -63 -37z"/>
<path d="M4646 1928 c-9 -12 -16 -43 -16 -68 0 -54 -22 -92 -48 -83 -9 4 -34
21 -55 39 -44 37 -87 48 -122 32 -31 -14 -39 -44 -31 -108 10 -75 -5 -84 -121
-77 -106 6 -166 -5 -161 -31 2 -9 23 -31 48 -50 25 -19 45 -40 45 -46 0 -6
-22 -15 -50 -19 -140 -24 -158 -30 -188 -57 -26 -24 -30 -32 -21 -47 6 -9 30
-22 54 -28 53 -13 47 -19 -73 -74 -116 -54 -118 -60 -24 -76 23 -4 37 -11 35
-18 -2 -7 -39 -30 -81 -52 -105 -55 -108 -60 -72 -90 l30 -25 -47 -41 c-41
-35 -48 -47 -48 -77 0 -30 -8 -43 -50 -83 -27 -26 -50 -49 -50 -52 0 -3 14
-14 31 -25 l31 -19 -43 -24 c-39 -21 -44 -29 -47 -64 -2 -23 -13 -51 -27 -67
-47 -56 -102 -287 -112 -469 -9 -181 12 -172 153 61 88 145 134 204 175 225
22 12 29 23 29 45 0 34 13 45 30 25 26 -31 50 -12 50 41 0 14 5 34 11 45 9 18
17 19 65 13 l54 -6 0 30 c0 17 4 42 10 56 8 22 15 26 49 24 22 -1 47 5 56 12
21 17 19 70 -5 100 -28 35 -25 43 10 25 37 -19 79 -19 87 0 5 14 -10 63 -42
139 -7 16 -5 18 11 12 47 -18 130 -35 146 -30 25 8 22 38 -6 81 -41 59 -16 79
67 56 38 -11 52 -12 63 -2 24 20 16 62 -21 108 -19 24 -35 46 -35 48 0 2 34 1
75 -3 84 -8 82 -10 64 65 -5 24 -8 45 -6 48 3 2 16 -2 30 -8 52 -24 73 30 42
104 -8 20 -15 39 -15 43 0 3 30 4 68 2 l67 -3 3 53 c2 28 6 52 9 52 4 0 19
-12 34 -26 38 -36 62 -26 88 39 34 85 45 153 30 188 -18 46 -167 159 -208 159
-5 0 -17 -10 -25 -22z"/>
</g>
</svg>
